<svg width="694" height="501" viewBox="0 0 694 501" fill="none" xmlns="http://www.w3.org/2000/svg">
<g clip-path="url(#clip0_120_316)">
<path d="M341.997 498.276H315.352V293.207H337.022C338.071 293.207 339.078 293.623 339.822 294.363C340.566 295.103 340.987 296.108 340.992 297.158L341.997 498.276Z" fill="#9A5858"/>
<path d="M317.842 499.362H31.7097V353.318H317.842V499.362Z" fill="#9A4D4D"/>
<path d="M205.063 498.819H32.2527V353.861H317.299V386.583C317.266 416.339 305.43 444.868 284.389 465.909C263.348 486.95 234.82 498.786 205.063 498.819Z" fill="#C89696"/>
<path d="M337.657 299.032C337.514 299.304 337.402 299.592 337.325 299.89L327.458 337.921L316.756 358.189H32.7958V353.141L48.9625 337.921L67.8219 301.847C68.6545 300.255 69.7478 298.813 71.0565 297.581C74.0426 294.772 77.9883 293.207 82.0885 293.207H334.147C334.831 293.207 335.504 293.384 336.1 293.721C336.695 294.057 337.194 294.542 337.547 295.128C337.901 295.714 338.096 296.382 338.116 297.066C338.135 297.75 337.977 298.427 337.657 299.032Z" fill="#C89696"/>
<path d="M317.842 499.362H31.7097V353.318H317.842V499.362ZM33.8818 497.19H315.67V355.49H33.8818V497.19Z" fill="#734D4D"/>
<path d="M332.729 318.487L327.458 337.921H48.9629L57.9618 321.746L332.729 318.487Z" fill="#9A5858"/>
<path d="M87.8736 429.847H42.2612V432.371H87.8736V429.847Z" fill="#9A4D4D"/>
<path d="M87.8736 438.681H42.2612V441.205H87.8736V438.681Z" fill="#9A4D4D"/>
<path d="M87.8736 447.516H42.2612V450.04H87.8736V447.516Z" fill="#9A4D4D"/>
<path d="M59.9298 401.73C68.9909 401.73 76.3364 394.385 76.3364 385.323C76.3364 376.262 68.9909 368.917 59.9298 368.917C50.8687 368.917 43.5232 376.262 43.5232 385.323C43.5232 394.385 50.8687 401.73 59.9298 401.73Z" fill="#9A4D4D"/>
<path d="M239.749 326.899H225.815V219.658H237.147C237.696 219.658 238.223 219.875 238.612 220.262C239.001 220.649 239.221 221.175 239.224 221.724L239.749 326.899Z" fill="#9A5858"/>
<path d="M227.118 327.467H77.4834V251.093H227.118V327.467Z" fill="#9A4D4D"/>
<path d="M168.139 327.183H77.7675V251.377H226.834V268.489C226.816 284.05 220.627 298.969 209.623 309.973C198.62 320.976 183.701 327.166 168.139 327.183Z" fill="#C89696"/>
<path d="M237.48 222.704C237.405 222.846 237.346 222.997 237.306 223.152L232.146 243.041L226.549 253.64H78.0515V251L86.506 243.041L96.3686 224.176C96.8039 223.343 97.3757 222.589 98.0601 221.945C99.6217 220.476 101.685 219.658 103.829 219.658H235.644C236.002 219.658 236.354 219.75 236.665 219.926C236.977 220.102 237.238 220.356 237.422 220.662C237.607 220.969 237.709 221.318 237.72 221.675C237.73 222.033 237.647 222.387 237.48 222.704Z" fill="#C89696"/>
<path d="M227.118 327.467H77.4834V251.093H227.118V327.467ZM78.6193 326.331H225.982V252.229H78.6193V326.331Z" fill="#734D4D"/>
<path d="M234.902 232.878L232.146 243.04H86.5061L91.2119 234.581L234.902 232.878Z" fill="#9A5858"/>
<path d="M106.854 291.114H83.0013V292.434H106.854V291.114Z" fill="#9A4D4D"/>
<path d="M106.854 295.734H83.0013V297.054H106.854V295.734Z" fill="#9A4D4D"/>
<path d="M106.854 300.354H83.0013V301.674H106.854V300.354Z" fill="#9A4D4D"/>
<path d="M92.2413 276.41C96.9798 276.41 100.821 272.569 100.821 267.83C100.821 263.092 96.9798 259.25 92.2413 259.25C87.5027 259.25 83.6614 263.092 83.6614 267.83C83.6614 272.569 87.5027 276.41 92.2413 276.41Z" fill="#9A4D4D"/>
<path d="M650.404 499.288L650.317 498.825C648.907 491.051 649.207 483.063 651.196 475.417C653.185 467.77 656.815 460.649 661.834 454.547C664.677 451.147 667.936 448.118 671.535 445.532L671.879 445.284L672.029 445.68C673.819 450.4 676.079 455.127 677.108 457.22L677.803 441.6L678.2 441.39C680.017 440.416 682.083 440.009 684.134 440.22C686.184 440.432 688.124 441.253 689.704 442.577C691.338 443.89 692.541 445.662 693.159 447.666C693.777 449.669 693.781 451.811 693.17 453.816C692.63 455.652 692.12 457.555 691.626 459.396C689.931 465.722 688.179 472.264 684.782 477.772C682.17 481.916 678.666 485.425 674.524 488.041C670.383 490.658 665.71 492.316 660.845 492.895L650.404 499.288Z" fill="#C89696"/>
<path d="M693.62 499.097C693.62 499.267 693.587 499.435 693.522 499.592C693.458 499.749 693.362 499.892 693.242 500.012C693.122 500.132 692.98 500.227 692.822 500.292C692.665 500.357 692.497 500.39 692.327 500.389H1.29239C0.949626 500.389 0.620898 500.253 0.378529 500.011C0.13616 499.768 0 499.44 0 499.097C0 498.754 0.13616 498.425 0.378529 498.183C0.620898 497.941 0.949626 497.804 1.29239 497.804H692.327C692.497 497.804 692.665 497.837 692.822 497.902C692.98 497.967 693.122 498.062 693.242 498.182C693.362 498.302 693.458 498.445 693.522 498.602C693.587 498.759 693.62 498.927 693.62 499.097Z" fill="#9A5858"/>
<path d="M536.877 168.425L517.097 165.592C510.408 176.778 508.03 206.552 508.03 206.552L488.673 252.562C487.391 253.432 486.361 254.625 485.686 256.021C485.012 257.416 484.717 258.964 484.832 260.51C484.946 262.055 485.465 263.544 486.338 264.825C487.21 266.105 488.404 267.134 489.8 267.807C491.197 268.479 492.745 268.772 494.291 268.656C495.836 268.54 497.324 268.019 498.603 267.145C499.883 266.271 500.911 265.076 501.582 263.679C502.252 262.282 502.544 260.733 502.426 259.187L534.209 205.634L536.877 168.425Z" fill="#FFB8B8"/>
<path d="M533.729 113.512C536.79 113.987 539.71 115.13 542.279 116.86C544.849 118.591 547.005 120.867 548.595 123.525C550.186 126.184 551.17 129.161 551.479 132.243C551.788 135.326 551.414 138.439 550.383 141.36L546.186 153.258C546.186 153.258 543.901 189.08 535.187 199.192L508.448 196.772C508.448 196.772 513.337 178.699 509.584 169.954C507.285 164.599 507.413 146.103 509.678 131.056C510.102 128.324 511.061 125.702 512.501 123.341C513.94 120.979 515.83 118.925 518.064 117.296C520.298 115.666 522.832 114.493 525.52 113.844C528.208 113.195 530.997 113.082 533.729 113.512Z" fill="#734D4D"/>
<path d="M599.098 485.216L587.183 485.215L581.515 439.257L599.1 439.258L599.098 485.216Z" fill="#FFB6B6"/>
<path d="M599.517 497.645L562.877 497.644V497.181C562.877 493.399 564.38 489.771 567.055 487.097C569.729 484.423 573.356 482.92 577.138 482.92L583.832 477.842L596.319 482.921L599.517 482.921L599.517 497.645Z" fill="#413C97"/>
<path d="M547.297 428.259L536.291 432.821L513.449 392.541L529.694 385.805L547.297 428.259Z" fill="#FFB6B6"/>
<path d="M552.446 439.579L518.601 453.613L518.424 453.185C516.975 449.692 516.973 445.766 518.419 442.271C519.865 438.776 522.64 435.998 526.134 434.549L530.372 427.295L543.852 427.202L546.806 425.977L552.446 439.579Z" fill="#413C97"/>
<path d="M612.721 223.782L528.163 232.616L516.853 270.712L477.682 333.661L520.932 413.124L536.163 399.453L521.543 335.285L565.181 288.175L573.455 284.741L580.024 459.558L604.319 459.957L614.95 267.057C620.058 250.017 618.521 235.946 612.721 223.782Z" fill="#413C97"/>
<path d="M581.719 103.18L567.84 87.5524L545.91 89.9891L531.869 109.639C524.395 111.357 517.864 115.874 513.62 122.261C509.375 128.648 507.74 136.418 509.05 143.974C514.499 175.348 533.015 205.777 526.901 221.258C517.62 244.756 517.054 254.34 539.27 251.045C561.487 247.751 635.916 240.156 621.486 225.726C607.056 211.296 603.886 187.182 603.886 187.182L603.307 132.015C603.921 128.688 603.839 125.269 603.067 121.975C602.296 118.681 600.85 115.582 598.823 112.874C596.795 110.165 594.228 107.906 591.285 106.238C588.341 104.569 585.084 103.528 581.719 103.18Z" fill="#734D4D"/>
<path d="M554.597 83.5534C568.042 83.5534 578.941 72.6542 578.941 59.2093C578.941 45.7645 568.042 34.8653 554.597 34.8653C541.152 34.8653 530.253 45.7645 530.253 59.2093C530.253 72.6542 541.152 83.5534 554.597 83.5534Z" fill="#FFB8B8"/>
<path d="M584.593 57.7638C583.506 62.6962 581.545 67.3942 578.803 71.6358C578.075 73.0821 576.987 74.3169 575.645 75.2217C574.965 75.6579 574.153 75.8419 573.352 75.7417C572.551 75.6416 571.81 75.2635 571.258 74.6734L570.666 74.1908C571.827 73.4752 572.864 72.5752 573.736 71.5261C574.168 70.9997 574.468 70.3778 574.611 69.7121C574.754 69.0465 574.736 68.3563 574.559 67.699C574.349 67.0507 573.895 66.5092 573.294 66.1881C572.693 65.8671 571.991 65.7915 571.335 65.9773C569.909 66.5366 569.043 68.5982 567.552 68.2802C566.345 68.017 566.093 66.427 566.093 65.1768C566.137 58.641 562.979 49.3529 560.533 49.638C558.063 49.773 555.589 49.4419 553.241 48.662C550.89 47.8807 548.409 47.5641 545.938 47.7298C545.762 47.7518 545.587 47.7847 545.4 47.8176C545.004 46.5758 544.459 45.3865 543.777 44.2756C543.854 45.6166 543.788 46.9621 543.58 48.2891C541.613 49.0998 539.58 49.7418 537.505 50.2082C535.246 50.5262 530.278 57.2813 530.048 56.5904C529.651 55.3486 529.107 54.1593 528.425 53.0484C528.502 54.3894 528.435 55.7349 528.227 57.0619C528.216 57.1167 528.216 57.1606 528.205 57.2155C527.109 55.7569 526.44 53.9805 526.813 55.3403C523.139 47.0281 524.565 41.0735 530.344 34.0662C531.47 32.5595 532.961 31.3634 534.675 30.5899C535.534 30.2127 536.476 30.063 537.409 30.1552C538.343 30.2474 539.236 30.5784 540.005 31.1163C542.362 28.9553 545.254 27.4639 548.382 26.7968C551.509 26.1297 554.758 26.311 557.792 27.3221C563.812 29.4166 568.451 30.6448 569.372 36.9613C574.35 36.1607 579.472 38.99 582.213 43.2118C584.944 47.4448 585.503 52.8181 584.593 57.7638Z" fill="#413C97"/>
<path d="M564.852 259.963H556.772V197.777H563.343C563.661 197.777 563.967 197.903 564.192 198.128C564.418 198.352 564.545 198.657 564.547 198.975L564.852 259.963Z" fill="#8C85E2"/>
<path d="M557.527 260.292H470.76V216.005H557.527V260.292Z" fill="#9A4D4D"/>
<path d="M523.328 260.128H470.924V216.17H557.362V226.093C557.352 235.116 553.763 243.767 547.383 250.148C541.002 256.528 532.351 260.117 523.328 260.128Z" fill="#3A3578"/>
<path d="M563.536 199.544C563.492 199.626 563.458 199.714 563.435 199.804L560.443 211.337L557.198 217.483H471.089V215.952L475.991 211.337L481.71 200.397C481.963 199.915 482.294 199.477 482.691 199.104C483.597 198.252 484.793 197.777 486.037 197.777H562.471C562.679 197.777 562.883 197.831 563.063 197.933C563.244 198.035 563.395 198.182 563.502 198.36C563.609 198.538 563.669 198.74 563.675 198.947C563.68 199.155 563.633 199.36 563.536 199.544Z" fill="#8C85E2"/>
<path d="M557.527 260.292H470.76V216.005H557.527V260.292ZM471.418 259.634H556.868V216.664H471.418V259.634Z" fill="#8C85E2"/>
<path d="M562.041 205.443L560.443 211.337H475.992L478.72 206.431L562.041 205.443Z" fill="#3A3578"/>
<path d="M487.791 239.212H473.959V239.978H487.791V239.212Z" fill="#9A4D4D"/>
<path d="M487.791 241.891H473.959V242.657H487.791V241.891Z" fill="#9A4D4D"/>
<path d="M487.791 244.57H473.959V245.336H487.791V244.57Z" fill="#9A4D4D"/>
<path d="M479.317 230.686C482.065 230.686 484.292 228.459 484.292 225.711C484.292 222.963 482.065 220.736 479.317 220.736C476.57 220.736 474.342 222.963 474.342 225.711C474.342 228.459 476.57 230.686 479.317 230.686Z" fill="#9A4D4D"/>
<path d="M598.607 162.74L578.827 159.907C572.138 171.093 569.76 200.866 569.76 200.866L550.403 246.876C549.121 247.747 548.091 248.94 547.416 250.335C546.742 251.73 546.447 253.279 546.562 254.824C546.676 256.37 547.195 257.858 548.068 259.139C548.94 260.42 550.134 261.448 551.53 262.121C552.927 262.794 554.475 263.087 556.021 262.97C557.566 262.854 559.054 262.333 560.334 261.459C561.613 260.585 562.641 259.39 563.312 257.993C563.982 256.596 564.274 255.047 564.156 253.502L595.939 199.949L598.607 162.74Z" fill="#FFB8B8"/>
<path d="M587.887 107.827C590.948 108.301 593.868 109.444 596.437 111.175C599.007 112.905 601.163 115.181 602.753 117.84C604.344 120.499 605.328 123.475 605.637 126.558C605.946 129.64 605.572 132.753 604.541 135.675L600.344 147.572C600.344 147.572 605.631 183.395 596.917 193.507L570.178 191.086C570.178 191.086 575.067 173.013 571.314 164.269C569.015 158.913 569.143 140.417 571.408 125.371C573.137 113.881 576.405 106.049 587.887 107.827Z" fill="#734D4D"/>
<path d="M419.929 48.5548C410.265 53.3745 402.911 61.8358 399.486 72.0773C396.061 82.3188 396.844 93.5015 401.664 103.165C411.7 123.29 447.968 157.611 476.905 162.797C464.457 125.003 481.764 86.5871 474.54 66.8203C466.82 45.6988 440.053 38.5184 419.929 48.5548Z" fill="#3A3578"/>
<path d="M433.494 96.4168C440.828 96.4168 446.773 90.4713 446.773 83.1372C446.773 75.8031 440.828 69.8576 433.494 69.8576C426.16 69.8576 420.214 75.8031 420.214 83.1372C420.214 90.4713 426.16 96.4168 433.494 96.4168Z" fill="#9A4D4D"/>
<path d="M476.649 184.112C481.453 184.112 485.347 180.218 485.347 175.414C485.347 170.61 481.453 166.716 476.649 166.716C471.846 166.716 467.951 170.61 467.951 175.414C467.951 180.218 471.846 184.112 476.649 184.112Z" fill="#3A3578"/>
<path opacity="0.2" d="M437.541 69.1778C439.285 69.1173 441.024 69.4009 442.658 70.0126C444.292 70.6243 445.789 71.5521 447.065 72.7428C448.34 73.9335 449.368 75.3639 450.09 76.9522C450.813 78.5405 451.215 80.2556 451.274 81.9994C451.333 83.7432 451.048 85.4815 450.435 87.1151C449.822 88.7486 448.893 90.2454 447.701 91.5197C446.509 92.794 445.078 93.821 443.489 94.5419C441.9 95.2628 440.185 95.6636 438.441 95.7212C441.396 94.622 443.864 92.507 445.402 89.7546C446.941 87.0021 447.449 83.7921 446.837 80.6989C446.225 77.6057 444.532 74.8314 442.061 72.8723C439.591 70.9133 436.503 69.8975 433.352 70.0068C434.695 69.5063 436.109 69.2264 437.541 69.1778Z" fill="#684850"/>
<path opacity="0.2" d="M474.607 66.828C481.831 86.5948 464.524 125.011 476.972 162.805C474.24 162.302 471.55 161.598 468.923 160.698C458.781 124.163 474.698 87.6555 467.718 68.5572C461.47 51.4639 442.748 43.5032 425.168 46.4074C444.463 39.8268 467.532 47.4722 474.607 66.828Z" fill="#684850"/>
<path d="M66.9655 250.222C56.9618 249.982 47.2725 253.725 40.029 260.629C32.7854 267.533 28.5811 277.031 28.3409 287.035C27.8407 307.867 42.6729 351.693 64.1258 368.48C70.3085 332.131 101.13 308.167 103.779 288.847C106.608 268.202 87.7971 250.722 66.9655 250.222Z" fill="#7573EE"/>
<path d="M63.09 296.729C69.8858 296.729 75.3949 291.22 75.3949 284.424C75.3949 277.629 69.8858 272.119 63.09 272.119C56.2941 272.119 50.785 277.629 50.785 284.424C50.785 291.22 56.2941 296.729 63.09 296.729Z" fill="#9A4D4D"/>
<path d="M58.4496 386.762C62.9007 386.762 66.509 383.154 66.509 378.703C66.509 374.252 62.9007 370.644 58.4496 370.644C53.9985 370.644 50.3901 374.252 50.3901 378.703C50.3901 383.154 53.9985 386.762 58.4496 386.762Z" fill="#7573EE"/>
<path opacity="0.2" d="M72.4539 274.745C75.3885 276.172 77.6358 278.707 78.7014 281.792C79.7671 284.876 79.5637 288.258 78.1361 291.192C77.4293 292.645 76.4432 293.945 75.234 295.017C74.0249 296.089 72.6165 296.912 71.0892 297.44C68.0047 298.506 64.6232 298.302 61.6886 296.875C64.5855 297.255 67.5232 296.592 69.9759 295.004C72.4286 293.417 74.2362 291.008 75.0753 288.209C75.9143 285.411 75.7299 282.405 74.5552 279.73C73.3804 277.054 71.2919 274.885 68.6636 273.609C69.98 273.78 71.26 274.164 72.4539 274.745Z" fill="#684850"/>
<path opacity="0.2" d="M103.83 288.882C101.182 308.202 70.36 332.167 64.1773 368.515C62.1582 366.92 60.2599 365.177 58.4979 363.302C66.0234 328.983 94.8799 305.98 97.4386 287.313C99.7287 270.606 87.8444 255.973 72.1868 250.733C90.8418 253.705 106.423 269.963 103.83 288.882Z" fill="#684850"/>
<path d="M210.107 89.8947C207.295 90.0787 204.666 91.3525 202.78 93.4451C200.893 95.5376 199.897 98.2838 200.005 101.099C200.035 101.671 200.113 102.24 200.238 102.799L168.311 122.913L185.962 130.719L213.574 110.422C215.853 109.726 217.836 108.295 219.216 106.353C220.595 104.411 221.293 102.067 221.201 99.6867C221.135 98.3327 220.803 97.0049 220.224 95.7792C219.645 94.5535 218.831 93.4537 217.827 92.5428C216.823 91.6319 215.649 90.9277 214.373 90.4703C213.097 90.0129 211.744 89.8113 210.39 89.8771C210.295 89.8817 210.201 89.8875 210.107 89.8947Z" fill="#FFB6B6"/>
<path d="M179.319 113.771L187.232 130.097L155.946 150.23C153.72 151.674 151.161 152.526 148.513 152.703C145.865 152.881 143.216 152.378 140.817 151.243C137.9 149.847 135.516 147.541 134.025 144.672C132.533 141.803 132.014 138.527 132.546 135.338L142.698 77.3814C143.38 73.3257 145.589 69.6853 148.873 67.209C152.156 64.7326 156.264 63.6086 160.351 64.0682C162.341 64.2858 164.27 64.8934 166.025 65.8563C167.781 66.8192 169.33 68.1185 170.584 69.68C171.838 71.2414 172.771 73.0345 173.332 74.9569C173.893 76.8793 174.069 78.8933 173.852 80.8839C173.834 81.0412 173.815 81.1982 173.793 81.3548C173.716 81.9117 173.609 82.4641 173.473 83.0095L162.39 124.227L179.319 113.771Z" fill="#3A3578"/>
<path d="M181.543 139.08H136.8V183.823H181.543V139.08Z" fill="#FFB8B8"/>
<path d="M287.65 270.851L304.738 265.102L314.254 311.615L302.674 315.51L287.65 270.851Z" fill="#FFB6B6"/>
<path d="M258.689 267.276L275.639 261.132L286.234 307.41L274.749 311.573L258.689 267.276Z" fill="#FFB6B6"/>
<path d="M138.405 195.512C129.437 255.297 248.86 219.951 248.86 219.951L286.304 271.605L308.225 267.619C308.225 267.619 298.361 236.61 280.745 195.041C272.922 176.58 184.092 181.091 184.092 181.091L182.248 166.615L131.43 165.619L138.405 195.512Z" fill="#413C97"/>
<path d="M224.669 223.959L252.285 206.76C272.501 247.129 278.46 264.612 278.46 264.612L259.348 269.987L224.669 223.959Z" fill="#413C97"/>
<path d="M163.965 66.373L154.959 54.7968L142.113 54.2398L140.831 65.1273L134.465 68.0625C128.109 92.2094 127.128 117.456 131.59 142.024C132.443 142.827 133.066 143.843 133.395 144.968C133.725 146.092 133.748 147.284 133.463 148.421L133.05 150.066L133.088 150.126C134.443 152.264 134.902 154.848 134.368 157.321L131.328 162.723C130.237 164.665 129.582 166.822 129.409 169.043C129.236 171.264 129.549 173.496 130.326 175.584C131.103 177.672 132.326 179.566 133.909 181.134C135.492 182.701 137.398 183.905 139.493 184.662C158.179 191.435 175.695 193.958 188.654 174.952L192.728 108.719L163.965 66.373Z" fill="#3A3578"/>
<path d="M154.531 57.871C167.649 57.871 178.283 47.2366 178.283 34.1184C178.283 21.0002 167.649 10.3658 154.531 10.3658C141.413 10.3658 130.778 21.0002 130.778 34.1184C130.778 47.2366 141.413 57.871 154.531 57.871Z" fill="#FFB8B8"/>
<path d="M142.607 5.48501C132.55 5.67823 124.573 15.007 124.79 26.3214C117.348 34.0872 115.545 72.2842 121.764 82.4457C133.14 83.7662 140.059 55.6219 150.035 59.6905L151.35 53.5483L154.329 61.5469C156.864 62.7157 159.38 63.9987 161.877 65.3958C163.672 57.1648 163.227 49.1641 158.404 42.1953C154.119 36.0043 164.546 28.6543 172.004 29.6931L171.894 24.007L173.767 29.6592C176.674 31.7953 179.89 31.022 183.187 29.4783C188.534 1.68854 147.137 -5.91106 142.607 5.48501Z" fill="#413C97"/>
<path d="M297.412 323.377L305.025 322.382L305.445 315.017L309.864 321.75L330.056 319.113C331.024 318.986 331.926 318.554 332.631 317.878C333.335 317.203 333.806 316.32 333.973 315.358C334.14 314.397 333.996 313.407 333.561 312.533C333.126 311.659 332.423 310.947 331.554 310.502L313.975 301.472L313.026 294.205L296.198 297.433L297.412 323.377Z" fill="#413C97"/>
<path d="M277.304 323.443L284.21 320.089L282.277 312.97L288.6 317.958L306.918 309.063C307.797 308.637 308.515 307.941 308.97 307.077C309.425 306.213 309.591 305.227 309.445 304.261C309.3 303.296 308.849 302.403 308.16 301.712C307.47 301.021 306.578 300.568 305.613 300.42L286.079 297.421L282.878 290.829L267.938 299.218L277.304 323.443Z" fill="#413C97"/>
<path d="M173.041 165.05H181.51V99.8688H174.623C174.289 99.8688 173.969 100.001 173.732 100.236C173.496 100.471 173.362 100.791 173.361 101.124L173.041 165.05Z" fill="#9A5858"/>
<path d="M180.719 118.975H271.666V165.395H180.719V118.975Z" fill="#9A4D4D"/>
<path d="M180.891 129.548V119.147H271.494V165.223H216.566C207.108 165.212 198.04 161.45 191.352 154.762C184.664 148.074 180.902 139.006 180.891 129.548Z" fill="#C89696"/>
<path d="M174.421 101.72C174.466 101.807 174.502 101.898 174.526 101.993L177.662 114.081L181.064 120.523H271.321V118.919L266.182 114.081L260.188 102.615C259.923 102.109 259.576 101.651 259.16 101.259C258.211 100.366 256.956 99.8688 255.653 99.8688H175.536C175.319 99.8688 175.105 99.925 174.916 100.032C174.726 100.139 174.568 100.293 174.456 100.479C174.343 100.666 174.281 100.878 174.275 101.095C174.269 101.313 174.319 101.528 174.421 101.72Z" fill="#C89696"/>
<path d="M180.719 118.975H271.666V165.395H180.719V118.975ZM270.976 164.705H181.409V119.665H270.976L270.976 164.705Z" fill="#734D4D"/>
<path d="M175.987 107.904L177.663 114.081H266.182L263.322 108.94L175.987 107.904Z" fill="#9A5858"/>
<path d="M268.312 143.3H253.814V144.102H268.312V143.3Z" fill="#9A4D4D"/>
<path d="M268.312 146.108H253.814V146.91H268.312V146.108Z" fill="#9A4D4D"/>
<path d="M268.312 148.916H253.814V149.718H268.312V148.916Z" fill="#9A4D4D"/>
<path d="M262.696 134.363C265.576 134.363 267.911 132.028 267.911 129.148C267.911 126.268 265.576 123.933 262.696 123.933C259.816 123.933 257.481 126.268 257.481 129.148C257.481 132.028 259.816 134.363 262.696 134.363Z" fill="#9A4D4D"/>
<path d="M220.629 50.3526C226.758 50.2054 232.695 52.4993 237.134 56.7296C241.572 60.9598 244.148 66.78 244.295 72.9097C244.602 85.6741 235.514 112.529 222.368 122.815C218.58 100.542 199.694 85.8581 198.071 74.0196C196.338 61.3698 207.864 50.6591 220.629 50.3526Z" fill="#7573EE"/>
<path d="M223.003 78.8497C227.167 78.8497 230.543 75.474 230.543 71.31C230.543 67.1459 227.167 63.7702 223.003 63.7702C218.839 63.7702 215.463 67.1459 215.463 71.31C215.463 75.474 218.839 78.8497 223.003 78.8497Z" fill="#9A4D4D"/>
<path d="M225.847 134.017C228.574 134.017 230.785 131.806 230.785 129.079C230.785 126.351 228.574 124.14 225.847 124.14C223.119 124.14 220.908 126.351 220.908 129.079C220.908 131.806 223.119 134.017 225.847 134.017Z" fill="#7573EE"/>
<path opacity="0.2" d="M217.266 65.3789C216.375 65.812 215.579 66.4162 214.922 67.1571C214.265 67.898 213.761 68.761 213.437 69.6969C213.114 70.6327 212.978 71.623 213.038 72.6114C213.097 73.5997 213.351 74.5667 213.784 75.457C214.217 76.3474 214.821 77.1437 215.562 77.8005C216.303 78.4574 217.166 78.9619 218.102 79.2852C219.038 79.6085 220.028 79.7443 221.016 79.6849C222.005 79.6254 222.972 79.3719 223.862 78.9388C222.087 79.1719 220.287 78.7656 218.784 77.7928C217.281 76.82 216.174 75.344 215.659 73.6291C215.145 71.9143 215.258 70.0724 215.978 68.4332C216.698 66.794 217.978 65.4645 219.588 64.6826C218.781 64.7879 217.997 65.023 217.266 65.3789Z" fill="#684850"/>
<path opacity="0.2" d="M198.04 74.0413C199.663 85.8798 218.549 100.564 222.337 122.836C223.574 121.859 224.737 120.791 225.817 119.642C221.206 98.6133 203.524 84.5181 201.956 73.08C200.553 62.8427 207.835 53.8764 217.429 50.6659C205.998 52.4867 196.451 62.4489 198.04 74.0413Z" fill="#684850"/>
<path d="M207.197 113.05C204.387 112.842 201.607 113.739 199.448 115.549C197.289 117.359 195.922 119.941 195.637 122.744C195.588 123.315 195.587 123.888 195.633 124.459L161.223 139.946L177.619 150.128L207.782 133.86C210.134 133.487 212.298 132.345 213.933 130.614C215.569 128.882 216.586 126.657 216.824 124.287C217.072 121.561 216.227 118.848 214.475 116.744C212.722 114.641 210.206 113.32 207.48 113.072C207.386 113.063 207.291 113.056 207.197 113.05Z" fill="#FFB6B6"/>
<path d="M173.393 132.421L178.963 149.687L145.185 165.282C142.78 166.404 140.128 166.892 137.481 166.7C134.834 166.508 132.28 165.643 130.062 164.186C127.367 162.398 125.327 159.784 124.248 156.735C123.169 153.687 123.11 150.371 124.079 147.286L142.178 91.3003C143.416 87.3784 146.11 84.0801 149.705 82.0835C153.301 80.087 157.525 79.5441 161.508 80.5665C163.449 81.0584 165.274 81.9278 166.88 83.1251C168.485 84.3223 169.838 85.824 170.863 87.5444C171.888 89.2648 172.564 91.1702 172.852 93.1518C173.141 95.1334 173.036 97.1524 172.544 99.0935C172.505 99.2469 172.464 99.3997 172.42 99.5517C172.267 100.093 172.084 100.625 171.874 101.146L155.177 140.426L173.393 132.421Z" fill="#3A3578"/>
</g>
<defs>
<clipPath id="clip0_120_316">
<rect width="693.62" height="500" fill="white" transform="translate(0 0.38916)"/>
</clipPath>
</defs>
</svg>
