<svg width="883" height="801" viewBox="0 0 883 801" fill="none" xmlns="http://www.w3.org/2000/svg">
<g clip-path="url(#clip0_126_699)">
<path d="M441.5 285.856C457.587 285.856 473.516 289.025 488.379 295.181C503.241 301.337 516.745 310.36 528.121 321.735C539.496 333.111 548.519 346.615 554.675 361.477C560.831 376.34 564 392.269 564 408.356V701.856H319V408.356C319 392.269 322.169 376.34 328.325 361.477C334.481 346.615 343.504 333.111 354.879 321.736C366.255 310.36 379.759 301.337 394.621 295.181C409.484 289.025 425.413 285.856 441.5 285.856Z" fill="#382727"/>
<path d="M399 433.134H377V506.134H399V433.134Z" fill="#A47070"/>
<path d="M478 512.134H405V578.134H478V512.134Z" fill="#A47070"/>
<path d="M478 433.134H405V506.134H478V433.134Z" fill="#A47070"/>
<path d="M484 427.134H506V425.634C506.008 416.448 504.049 407.367 500.254 399.002C496.459 390.637 490.917 383.182 484 377.137V427.134Z" fill="#A47070"/>
<path d="M405 427.134H478V372.46C467.266 365.066 454.534 361.116 441.5 361.134C428.466 361.116 415.734 365.066 405 372.46V427.134Z" fill="#A47070"/>
<path d="M399 512.134H377V562.134C377 566.377 378.686 570.447 381.686 573.447C384.687 576.448 388.757 578.134 393 578.134H399V512.134Z" fill="#A47070"/>
<path d="M484 512.134V578.134H490C494.243 578.134 498.313 576.448 501.314 573.447C504.314 570.447 506 566.377 506 562.134V512.134H484Z" fill="#A47070"/>
<path d="M399 427.134V377.137C392.083 383.182 386.541 390.637 382.746 399.002C378.951 407.367 376.992 416.448 377 425.634V427.134H399Z" fill="#A47070"/>
<path d="M506 433.134H484V506.134H506V433.134Z" fill="#A47070"/>
<path d="M546.5 530.134C553.68 530.134 559.5 524.313 559.5 517.134C559.5 509.954 553.68 504.134 546.5 504.134C539.32 504.134 533.5 509.954 533.5 517.134C533.5 524.313 539.32 530.134 546.5 530.134Z" fill="#DF5D5D"/>
<path d="M136.657 392.368H119.39V449.664H136.657V392.368Z" fill="#B98A8A"/>
<path d="M198.662 392.368H141.366V449.664H198.662V392.368Z" fill="#B98A8A"/>
<path d="M220.639 392.368H203.372V449.664H220.639V392.368Z" fill="#B98A8A"/>
<path d="M203.372 387.658H220.639V386.481C220.646 379.271 219.108 372.144 216.129 365.578C213.151 359.013 208.801 353.161 203.372 348.417V387.658Z" fill="#B98A8A"/>
<path d="M198.662 454.373H141.366V506.174H198.662V454.373Z" fill="#B98A8A"/>
<path d="M136.657 454.373H119.39V493.616C119.39 496.947 120.713 500.141 123.068 502.496C125.423 504.851 128.617 506.174 131.948 506.174H136.657L136.657 454.373Z" fill="#B98A8A"/>
<path d="M203.372 454.373V506.174H208.081C209.73 506.174 211.363 505.85 212.887 505.218C214.411 504.587 215.795 503.662 216.961 502.496C218.127 501.33 219.052 499.946 219.683 498.422C220.315 496.899 220.639 495.265 220.639 493.616V454.373H203.372Z" fill="#B98A8A"/>
<path d="M136.657 387.658V348.417C131.228 353.161 126.878 359.013 123.9 365.578C120.921 372.144 119.383 379.271 119.39 386.481V387.658H136.657Z" fill="#B98A8A"/>
<path d="M141.366 387.658H198.662V344.746C190.237 338.943 180.245 335.842 170.014 335.856C159.784 335.842 149.791 338.943 141.366 344.746V387.658Z" fill="#B98A8A"/>
<path d="M243.19 512.435H97.2029C96.2664 512.434 95.3687 512.061 94.7065 511.399C94.0444 510.737 93.6719 509.839 93.6709 508.903V499.484C93.6719 498.548 94.0444 497.65 94.7065 496.988C95.3687 496.326 96.2664 495.953 97.2029 495.952H243.19C244.126 495.953 245.024 496.326 245.686 496.988C246.348 497.65 246.721 498.548 246.722 499.484V508.903C246.721 509.839 246.348 510.737 245.686 511.399C245.024 512.061 244.126 512.434 243.19 512.435Z" fill="#382727"/>
<path d="M679.657 392.368H662.39V449.664H679.657V392.368Z" fill="#B98A8A"/>
<path d="M741.662 392.368H684.366V449.664H741.662V392.368Z" fill="#B98A8A"/>
<path d="M763.639 392.368H746.372V449.664H763.639V392.368Z" fill="#B98A8A"/>
<path d="M746.372 387.658H763.639V386.481C763.646 379.271 762.108 372.144 759.129 365.578C756.151 359.013 751.801 353.161 746.372 348.417V387.658Z" fill="#B98A8A"/>
<path d="M741.662 454.373H684.366V506.174H741.662V454.373Z" fill="#B98A8A"/>
<path d="M679.657 454.373H662.39V493.616C662.39 496.947 663.713 500.141 666.068 502.496C668.423 504.851 671.617 506.174 674.948 506.174H679.657L679.657 454.373Z" fill="#B98A8A"/>
<path d="M746.372 454.373V506.174H751.081C752.73 506.174 754.363 505.85 755.887 505.218C757.411 504.587 758.795 503.662 759.961 502.496C761.127 501.33 762.052 499.946 762.683 498.422C763.315 496.899 763.639 495.265 763.639 493.616V454.373H746.372Z" fill="#B98A8A"/>
<path d="M679.657 387.658V348.417C674.228 353.161 669.878 359.013 666.9 365.578C663.921 372.144 662.383 379.271 662.39 386.481V387.658H679.657Z" fill="#B98A8A"/>
<path d="M684.366 387.658H741.662V344.746C733.237 338.943 723.245 335.842 713.014 335.856C702.784 335.842 692.791 338.943 684.366 344.746V387.658Z" fill="#B98A8A"/>
<path d="M786.19 512.435H640.203C639.266 512.434 638.369 512.061 637.706 511.399C637.044 510.737 636.672 509.839 636.671 508.903V499.484C636.672 498.548 637.044 497.65 637.707 496.988C638.369 496.326 639.266 495.953 640.203 495.952H786.19C787.126 495.953 788.024 496.326 788.686 496.988C789.348 497.65 789.721 498.548 789.722 499.484V508.903C789.721 509.839 789.348 510.737 788.686 511.399C788.024 512.061 787.126 512.434 786.19 512.435Z" fill="#382727"/>
<path d="M829.5 702.856H53.5C44.7509 702.846 36.363 699.366 30.1764 693.18C23.9898 686.993 20.5099 678.605 20.5 669.856V166.856C20.5099 158.107 23.9898 149.719 30.1764 143.533C36.363 137.346 44.7509 133.866 53.5 133.856H829.5C838.249 133.866 846.637 137.346 852.824 143.533C859.01 149.719 862.49 158.107 862.5 166.856V669.856C862.49 678.605 859.01 686.993 852.824 693.18C846.637 699.366 838.249 702.846 829.5 702.856ZM53.5 135.856C45.2811 135.865 37.4016 139.134 31.59 144.946C25.7784 150.758 22.5093 158.637 22.5 166.856V669.856C22.5093 678.075 25.7784 685.955 31.59 691.766C37.4016 697.578 45.2811 700.847 53.5 700.856H829.5C837.719 700.847 845.598 697.578 851.41 691.766C857.222 685.955 860.491 678.075 860.5 669.856V166.856C860.491 158.637 857.222 150.758 851.41 144.946C845.598 139.134 837.719 135.865 829.5 135.856H53.5Z" fill="#894343"/>
<path d="M33.0483 199.626C24.741 199.619 16.7403 196.487 10.6369 190.851C4.53346 185.216 0.774361 177.49 0.106967 169.209C-0.560428 160.929 1.91276 152.7 7.03481 146.16C12.1569 139.619 19.5526 135.246 27.7517 133.909L433.306 0.658353C438.576 -0.212827 443.953 -0.219425 449.225 0.638822L855.319 133.931C863.966 135.358 871.693 140.159 876.802 147.28C881.912 154.401 883.985 163.259 882.567 171.907C881.149 180.556 876.355 188.288 869.24 193.404C862.124 198.521 853.268 200.603 844.618 199.194C840.243 198.569 445.096 142.147 441.492 141.999C437.902 142.147 42.3701 198.624 38.3752 199.194C36.6141 199.481 34.8327 199.626 33.0483 199.626Z" fill="#894343"/>
<path d="M615.436 623.406C616.272 622.32 616.86 621.064 617.159 619.726C617.458 618.388 617.459 617.001 617.164 615.662C616.868 614.323 616.283 613.066 615.449 611.978C614.614 610.89 613.552 609.998 612.336 609.365L614.189 588.018L601.491 583.727L599.297 613.911C598.369 616.025 598.249 618.405 598.959 620.601C599.669 622.797 601.16 624.656 603.149 625.827C605.138 626.997 607.488 627.397 609.752 626.951C612.017 626.505 614.039 625.243 615.436 623.406Z" fill="#FFB8B8"/>
<path d="M678.804 789.38L667.371 789.379L661.935 745.283L678.808 745.284L678.804 789.38Z" fill="#FFB8B8"/>
<path d="M659.205 786.112H681.253V799.994H645.323C645.323 798.171 645.682 796.366 646.38 794.682C647.078 792.998 648.1 791.467 649.389 790.178C650.678 788.889 652.209 787.867 653.893 787.169C655.577 786.471 657.382 786.112 659.205 786.112Z" fill="#585587"/>
<path d="M652.853 760.12L641.751 762.848L625.945 721.325L642.331 717.299L652.853 760.12Z" fill="#FFB8B8"/>
<path d="M633.041 761.625L654.452 756.364L657.765 769.845L622.873 778.419C622.438 776.648 622.356 774.81 622.632 773.007C622.907 771.205 623.535 769.475 624.479 767.916C625.423 766.357 626.666 764.998 628.135 763.919C629.604 762.84 631.271 762.06 633.041 761.625Z" fill="#585587"/>
<path d="M665.423 775.322C664.38 775.324 663.373 774.939 662.598 774.24C661.822 773.542 661.334 772.581 661.227 771.543L648.072 648.99L636.624 686.465L652.838 744.998C653.117 746.002 653.015 747.073 652.553 748.006C652.091 748.939 651.3 749.669 650.332 750.055L637.443 755.211C636.912 755.423 636.344 755.525 635.773 755.512C635.201 755.499 634.638 755.37 634.118 755.133C633.598 754.896 633.131 754.556 632.746 754.133C632.361 753.711 632.066 753.215 631.877 752.675L612.007 695.666C609.831 689.442 608.869 682.858 609.172 676.271L611.945 614.748L684.988 617.841L683.847 770.055C683.834 771.114 683.425 772.131 682.702 772.905C681.978 773.68 680.992 774.156 679.935 774.241L665.751 775.31C665.641 775.318 665.531 775.322 665.423 775.322Z" fill="#585587"/>
<path d="M653.326 478.592C666.89 478.592 677.887 467.596 677.887 454.031C677.887 440.467 666.89 429.47 653.326 429.47C639.761 429.47 628.765 440.467 628.765 454.031C628.765 467.596 639.761 478.592 653.326 478.592Z" fill="#FFB8B8"/>
<path d="M671.387 621.843C664.919 621.843 656.883 621.314 648.57 620.767C637.21 620.019 625.463 619.247 616.695 619.754C615.511 619.871 614.317 619.684 613.226 619.209C612.135 618.733 611.184 617.987 610.464 617.04C601.424 605.466 615.367 560.333 615.965 558.417L627.311 507.949C629.807 496.849 637.782 488.661 648.124 486.581C657.803 484.636 667.167 488.512 673.172 496.956C673.49 497.404 673.809 497.863 674.127 498.335C693.679 527.291 682.621 599.231 681.879 603.874C682.912 605.111 688.497 612.106 686.962 616.965C686.338 618.941 684.641 620.288 681.92 620.968C678.453 621.655 674.92 621.948 671.387 621.843Z" fill="#894343"/>
<path d="M617.092 621.866C614.868 621.866 611.867 621.045 607.82 619.361C606.081 618.637 600.789 616.435 607.214 560.289C610.369 532.709 614.89 505.321 614.936 505.048L614.979 504.784L615.223 504.674C615.339 504.621 626.885 499.328 628.892 492.528C628.962 492.292 629.04 492.064 629.126 491.843C629.679 490.331 630.793 489.091 632.238 488.382C633.683 487.672 635.346 487.548 636.88 488.035C638.501 488.422 639.913 489.411 640.831 490.802C641.749 492.193 642.104 493.881 641.822 495.523C641.123 499.959 639.779 504.268 637.832 508.315C632.399 519.525 628.718 549.242 628.682 549.541C628.474 552.079 623.543 612.213 622.593 616.777C622.262 618.37 621.651 620.321 619.86 621.267C619 621.69 618.05 621.896 617.092 621.866Z" fill="#585587"/>
<path d="M643.924 619.561C643.475 619.561 643.04 619.411 642.685 619.136C635.459 613.645 647.154 547.084 654.09 524.12C655.478 519.522 656.715 515.583 657.766 512.414C659.681 506.727 661.017 500.862 661.755 494.907C662.137 491.682 662.966 489.839 664.292 489.275C665.214 488.882 666.297 489.149 667.512 490.068C673.917 489.753 680.143 492.37 685.914 495.249L691.105 497.84L696.932 600.989C696.767 607.571 683.79 612.219 678.128 612.516C669.039 612.992 652.719 614.472 645.528 619.025C645.055 619.353 644.499 619.54 643.924 619.561Z" fill="#585587"/>
<path d="M611.465 600.208C611.38 600.208 611.294 600.205 611.207 600.2L599.44 599.476C598.854 599.44 598.282 599.282 597.76 599.013C597.239 598.744 596.779 598.369 596.41 597.913C596.041 597.456 595.771 596.928 595.617 596.361C595.464 595.795 595.43 595.203 595.517 594.622L600.842 559.344L610.867 509.846C611.114 508.627 611.614 507.473 612.335 506.46C613.057 505.446 613.983 504.596 615.054 503.963C616.125 503.33 617.318 502.93 618.554 502.788C619.789 502.645 621.041 502.764 622.228 503.137C624.258 503.784 625.988 505.136 627.108 506.948C628.228 508.759 628.664 510.912 628.336 513.016L620.372 562.613L615.657 596.56C615.512 597.57 615.009 598.494 614.24 599.163C613.47 599.833 612.486 600.204 611.465 600.208Z" fill="#585587"/>
<path d="M657.813 477.989C661.509 478.068 665.181 477.365 668.586 475.925C671.991 474.485 675.054 472.34 677.571 469.632C680.089 466.924 682.004 463.714 683.193 460.213C684.381 456.712 684.816 452.999 684.467 449.318C684.118 445.637 682.994 442.072 681.17 438.856C679.345 435.64 676.86 432.847 673.879 430.66C670.897 428.473 667.487 426.942 663.872 426.167C660.257 425.392 656.518 425.391 652.902 426.163C647.501 422.884 641.222 420.677 634.928 421.238C628.634 421.799 622.409 425.536 620.056 431.4C617.702 437.264 620.231 444.994 626.083 447.378C629.835 448.905 634.072 448.165 638.075 447.548C642.079 446.932 646.447 446.53 649.932 448.596C653.416 450.662 654.983 456.202 651.862 458.784C650.208 460.208 649.026 462.102 648.475 464.213C647.924 466.325 648.03 468.554 648.778 470.605C650.346 474.661 654.627 477.92 657.813 477.989Z" fill="#585587"/>
<path d="M603.37 480.179C596.969 480.183 590.832 482.729 586.307 487.256C581.782 491.784 579.24 497.923 579.24 504.325C579.24 510.726 581.782 516.865 586.307 521.393C590.832 525.92 596.969 528.466 603.37 528.47C609.771 528.466 615.909 525.92 620.434 521.393C624.959 516.865 627.501 510.726 627.501 504.325C627.501 497.923 624.959 491.784 620.434 487.257C615.909 482.729 609.772 480.183 603.37 480.179Z" fill="#2B482E"/>
<path d="M601.079 514.352C600.444 514.354 599.825 514.148 599.316 513.767L599.285 513.743L592.645 508.663C592.337 508.428 592.079 508.134 591.885 507.798C591.691 507.463 591.565 507.092 591.515 506.708C591.464 506.324 591.489 505.933 591.589 505.559C591.69 505.185 591.862 504.834 592.098 504.526C592.334 504.219 592.628 503.961 592.964 503.767C593.299 503.573 593.669 503.447 594.054 503.396C594.438 503.346 594.828 503.371 595.203 503.471C595.577 503.571 595.928 503.744 596.235 503.98L600.536 507.278L610.7 494.019C610.935 493.712 611.229 493.454 611.564 493.26C611.9 493.066 612.27 492.94 612.654 492.889C613.038 492.839 613.428 492.864 613.803 492.964C614.177 493.064 614.528 493.237 614.835 493.473L614.836 493.473L614.773 493.561L614.838 493.473C615.458 493.95 615.863 494.653 615.966 495.429C616.068 496.204 615.859 496.988 615.383 497.61L603.429 513.198C603.152 513.557 602.797 513.848 602.39 514.048C601.983 514.247 601.535 514.35 601.082 514.349L601.079 514.352Z" fill="white"/>
<path d="M654.234 547.134H569.489C568.362 547.133 567.246 547.355 566.204 547.786C565.163 548.217 564.217 548.85 563.42 549.646C562.623 550.443 561.991 551.39 561.56 552.431C561.129 553.472 560.907 554.588 560.907 555.715V640.46C560.907 641.587 561.129 642.703 561.56 643.744C561.991 644.786 562.623 645.732 563.42 646.529C564.217 647.326 565.163 647.958 566.204 648.389C567.246 648.82 568.362 649.042 569.489 649.042H654.234C655.361 649.042 656.477 648.82 657.518 648.389C658.559 647.958 659.505 647.326 660.302 646.529C661.099 645.732 661.731 644.786 662.163 643.744C662.594 642.703 662.816 641.587 662.815 640.46V555.715C662.816 554.588 662.594 553.472 662.163 552.431C661.731 551.39 661.099 550.443 660.302 549.646C659.505 548.85 658.559 548.217 657.518 547.786C656.477 547.355 655.361 547.133 654.234 547.134Z" fill="#D89A9A"/>
<path d="M635.148 610.502L595.136 618.294C592.763 618.754 590.304 618.253 588.299 616.902C586.295 615.551 584.908 613.459 584.443 611.087L581.368 595.293C580.908 592.92 581.409 590.461 582.76 588.456C584.111 586.452 586.202 585.065 588.575 584.6L628.586 576.808C630.96 576.349 633.418 576.85 635.423 578.201C637.428 579.552 638.814 581.643 639.279 584.016L642.355 599.81C642.814 602.183 642.313 604.642 640.962 606.646C639.611 608.651 637.52 610.038 635.148 610.502Z" fill="#A47070"/>
<path d="M627.142 591.843L596.607 597.79C596.049 597.898 595.47 597.781 594.998 597.463C594.526 597.145 594.2 596.652 594.091 596.094C593.983 595.535 594.1 594.956 594.418 594.485C594.736 594.013 595.229 593.687 595.787 593.578L626.322 587.632C626.599 587.577 626.884 587.578 627.16 587.634C627.436 587.69 627.699 587.8 627.933 587.957C628.166 588.115 628.367 588.317 628.523 588.552C628.678 588.787 628.786 589.05 628.84 589.327C628.894 589.604 628.893 589.888 628.837 590.164C628.78 590.441 628.67 590.703 628.513 590.937C628.355 591.171 628.153 591.371 627.918 591.526C627.683 591.682 627.419 591.79 627.142 591.843Z" fill="#D89A9A"/>
<path d="M621.208 600.649L605.414 603.725C605.137 603.779 604.853 603.778 604.577 603.722C604.301 603.665 604.038 603.555 603.805 603.398C603.571 603.241 603.371 603.039 603.215 602.804C603.06 602.569 602.952 602.306 602.898 602.029C602.844 601.753 602.845 601.468 602.901 601.192C602.957 600.916 603.067 600.654 603.225 600.42C603.382 600.186 603.584 599.986 603.819 599.83C604.054 599.675 604.317 599.567 604.594 599.513L620.388 596.437C620.946 596.329 621.525 596.446 621.997 596.764C622.469 597.082 622.795 597.575 622.904 598.133C623.013 598.692 622.895 599.271 622.577 599.742C622.259 600.214 621.766 600.54 621.208 600.649Z" fill="#D89A9A"/>
<path d="M662.815 555.715V566.979H560.907V555.715C560.907 554.588 561.129 553.472 561.56 552.431C561.991 551.39 562.623 550.443 563.42 549.646C564.217 548.85 565.163 548.217 566.205 547.786C567.246 547.355 568.362 547.133 569.489 547.134H654.234C655.361 547.133 656.477 547.355 657.518 547.786C658.559 548.217 659.505 548.85 660.302 549.646C661.099 550.443 661.731 551.39 662.163 552.431C662.594 553.472 662.816 554.588 662.815 555.715Z" fill="#DF5D5D"/>
<path d="M651.669 561.592C652.387 560.424 653.352 559.428 654.496 558.674C655.641 557.919 656.937 557.424 658.293 557.225C659.649 557.025 661.033 557.126 662.346 557.518C663.659 557.911 664.87 558.588 665.894 559.499L685.189 550.179L693.713 560.523L666.279 573.302C664.634 574.921 662.452 575.879 660.147 575.996C657.842 576.113 655.574 575.38 653.773 573.937C651.972 572.494 650.763 570.44 650.375 568.164C649.987 565.889 650.448 563.551 651.669 561.592Z" fill="#FFB8B8"/>
<path d="M678.472 571.602C677.522 571.602 676.599 571.282 675.853 570.694C675.107 570.106 674.58 569.284 674.357 568.36L671.555 556.711C671.341 555.834 671.414 554.913 671.763 554.081C672.113 553.249 672.719 552.552 673.495 552.091L690.397 541.976L681.757 510.341C681.148 508.093 681.281 505.708 682.136 503.541C682.951 501.486 684.38 499.733 686.228 498.52C688.075 497.307 690.252 496.692 692.461 496.76C694.67 496.828 696.805 497.575 698.574 498.899C700.344 500.223 701.662 502.061 702.35 504.161L711.889 533.286C713.061 536.837 713.07 540.668 711.915 544.224C710.76 547.78 708.502 550.875 705.468 553.06L680.949 570.798C680.229 571.32 679.362 571.601 678.472 571.602Z" fill="#585587"/>
<path d="M706.401 800.856H604.401C604.136 800.856 603.882 800.751 603.694 800.563C603.507 800.376 603.401 800.121 603.401 799.856C603.401 799.591 603.507 799.337 603.694 799.149C603.882 798.961 604.136 798.856 604.401 798.856H706.401C706.667 798.856 706.921 798.961 707.108 799.149C707.296 799.337 707.401 799.591 707.401 799.856C707.401 800.121 707.296 800.376 707.108 800.563C706.921 800.751 706.667 800.856 706.401 800.856Z" fill="#894343"/>
</g>
<defs>
<clipPath id="clip0_126_699">
<rect width="883" height="800.856" fill="white"/>
</clipPath>
</defs>
</svg>
