<svg width="917" height="501" viewBox="0 0 917 501" fill="none" xmlns="http://www.w3.org/2000/svg">
<g clip-path="url(#clip0_120_414)">
<path d="M339.034 436.879C336.205 459.039 325.805 479.314 314.71 498.844C314.343 499.509 313.965 500.164 313.579 500.829H198.262C195.929 500.224 193.627 499.559 191.335 498.844C178.31 494.879 166.014 488.829 154.924 480.931C112.498 450.366 96.1733 392.608 103.547 340.854C108.132 308.7 122.244 275.872 149.723 258.554C164.232 249.395 182.869 246.417 199.571 249.821C200.008 249.901 200.445 250 200.891 250.089C215.261 253.324 228.063 261.363 235.348 274.314C248.447 297.586 240.647 326.415 234.207 352.316C227.786 378.218 224.302 409.221 242.939 428.324C236.786 410.213 242.86 388.608 257.558 376.362C268.662 367.123 284.124 363.66 298.226 366.528C299.576 366.815 300.906 367.143 302.216 367.54C305.381 368.467 308.434 369.745 311.316 371.351C333.297 383.627 342.199 411.9 339.034 436.879Z" fill="#4B3737"/>
<path d="M270.657 498.844C273.853 499.589 277.058 500.244 280.283 500.829H262.847C260.564 500.214 258.292 499.559 256.039 498.844C251.087 497.296 246.211 495.52 241.411 493.515C222.159 485.437 204.424 473.31 191.007 457.173C184.445 449.355 179.087 440.602 175.109 431.202C170.795 420.578 168.054 409.382 166.972 397.967C164.54 374.546 167.021 350.48 171.655 327.477C176.438 303.634 184.158 280.477 194.64 258.535C195.9 255.905 197.203 253.291 198.55 250.695C198.642 250.481 198.782 250.291 198.959 250.14C199.137 249.988 199.346 249.879 199.572 249.821C200.03 249.733 200.504 249.829 200.891 250.089C201.356 250.356 201.701 250.791 201.854 251.304C202.007 251.818 201.958 252.37 201.715 252.848C190.909 273.923 182.717 296.238 177.322 319.299C172.043 341.797 169.046 365.337 170.067 388.47C171.04 410.084 176.687 431.341 189.499 449.016C201.199 465.152 217.355 477.875 235.229 486.538C246.541 491.951 258.425 496.079 270.657 498.844Z" fill="#C99191"/>
<path d="M308.924 500.829H303.784C303.208 500.174 302.652 499.509 302.106 498.844C290.397 484.617 282.465 467.667 279.043 449.562C274.887 426.967 278.12 403.635 288.262 383.021C291.092 377.241 294.426 371.722 298.226 366.528C299.575 366.815 300.906 367.143 302.215 367.54C292.221 380.782 285.498 396.2 282.596 412.535C280.007 427.842 280.868 443.534 285.115 458.465C289.363 473.397 296.89 487.192 307.148 498.844C307.723 499.509 308.319 500.174 308.924 500.829Z" fill="#C99191"/>
<path d="M772.017 483.951C772.764 489.8 775.509 495.151 778.437 500.305C778.534 500.481 778.633 500.654 778.735 500.829H809.17C809.785 500.669 810.393 500.494 810.998 500.305C814.435 499.259 817.68 497.662 820.607 495.578C831.804 487.511 836.113 472.268 834.166 458.609C832.956 450.123 829.232 441.459 821.98 436.888C818.042 434.49 813.343 433.667 808.824 434.584C808.709 434.605 808.593 434.631 808.476 434.654C806.595 435.018 804.812 435.776 803.244 436.878C801.677 437.979 800.361 439.401 799.382 441.048C795.925 447.189 797.983 454.798 799.683 461.634C801.378 468.47 802.297 476.652 797.378 481.694C798.099 479.585 798.246 477.323 797.802 475.139C797.359 472.955 796.343 470.929 794.857 469.268C793.371 467.607 791.47 466.372 789.349 465.69C787.227 465.007 784.963 464.902 782.787 465.384C782.431 465.46 782.08 465.547 781.734 465.652C780.899 465.896 780.093 466.234 779.332 466.657C773.531 469.897 771.182 477.359 772.017 483.951Z" fill="#4B3737"/>
<path d="M790.063 500.305C789.22 500.502 788.374 500.675 787.522 500.829H792.124C792.727 500.667 793.326 500.494 793.921 500.305C795.228 499.897 796.515 499.428 797.782 498.899C802.92 496.813 807.482 493.523 811.084 489.308C812.816 487.244 814.23 484.934 815.28 482.453C816.418 479.649 817.142 476.695 817.428 473.682C817.95 467.454 817.533 461.183 816.191 455.078C814.929 448.786 812.892 442.674 810.125 436.883C809.793 436.189 809.449 435.499 809.093 434.814C809.069 434.758 809.032 434.708 808.985 434.668C808.939 434.628 808.883 434.599 808.824 434.584C808.703 434.56 808.578 434.586 808.475 434.654C808.353 434.725 808.262 434.839 808.221 434.975C808.181 435.11 808.194 435.256 808.258 435.382C811.11 440.944 813.272 446.834 814.696 452.92C816.162 458.89 816.806 465.032 816.61 471.175C816.506 476.89 814.722 482.447 811.482 487.155C808.331 491.395 804.187 494.795 799.413 497.058C796.428 498.486 793.291 499.575 790.063 500.305Z" fill="#C99191"/>
<path d="M779.964 500.829H781.32C781.472 500.656 781.619 500.481 781.763 500.305C784.853 496.551 786.947 492.077 787.85 487.299C788.947 481.336 788.093 475.178 785.417 469.737C784.67 468.212 783.79 466.755 782.787 465.385C782.431 465.46 782.08 465.547 781.734 465.652C784.372 469.147 786.146 473.216 786.912 477.527C787.595 481.566 787.368 485.708 786.247 489.649C785.126 493.589 783.14 497.23 780.432 500.305C780.281 500.481 780.123 500.656 779.964 500.829Z" fill="#C99191"/>
<path d="M497.698 349.666H402.447L401.437 320.379C401.393 319.11 401.625 317.846 402.117 316.675C402.608 315.503 403.348 314.452 404.285 313.594C405.221 312.736 406.333 312.091 407.542 311.704C408.752 311.316 410.032 311.196 411.293 311.35L466.723 318.137H466.729C474.947 318.16 482.821 321.438 488.626 327.255C494.431 333.072 497.693 340.952 497.698 349.17V349.666Z" fill="#8F4A4A"/>
<path d="M455.245 245.782H388.811C387.928 245.782 387.053 245.956 386.236 246.294C385.42 246.632 384.678 247.127 384.054 247.752C383.429 248.377 382.933 249.119 382.595 249.935C382.257 250.751 382.084 251.626 382.084 252.51V318.943C382.084 319.827 382.257 320.701 382.595 321.518C382.933 322.334 383.429 323.076 384.054 323.701C384.678 324.325 385.42 324.821 386.236 325.159C387.053 325.497 387.928 325.671 388.811 325.67H455.245C456.128 325.671 457.003 325.497 457.819 325.159C458.636 324.821 459.377 324.325 460.002 323.701C460.627 323.076 461.122 322.334 461.46 321.518C461.798 320.701 461.972 319.827 461.972 318.943V252.51C461.972 251.626 461.798 250.751 461.46 249.935C461.122 249.119 460.627 248.377 460.002 247.752C459.377 247.127 458.636 246.632 457.819 246.294C457.003 245.956 456.128 245.782 455.245 245.782Z" fill="#FB9494"/>
<path d="M440.283 295.459L408.917 301.567C407.056 301.927 405.129 301.534 403.557 300.475C401.986 299.416 400.899 297.777 400.534 295.917L398.123 283.536C397.763 281.675 398.156 279.748 399.215 278.176C400.274 276.605 401.913 275.518 403.773 275.153L435.139 269.045C437 268.685 438.927 269.077 440.499 270.137C442.07 271.196 443.157 272.835 443.521 274.695L445.933 287.076C446.293 288.937 445.9 290.864 444.841 292.436C443.782 294.007 442.142 295.094 440.283 295.459Z" fill="#352BAA"/>
<path d="M434.007 280.831L410.07 285.493C409.632 285.578 409.178 285.486 408.809 285.236C408.439 284.987 408.183 284.601 408.098 284.163C408.012 283.725 408.105 283.272 408.354 282.902C408.603 282.532 408.989 282.276 409.427 282.191L433.364 277.529C433.802 277.444 434.256 277.536 434.626 277.786C434.996 278.035 435.251 278.421 435.337 278.859C435.422 279.297 435.33 279.75 435.08 280.12C434.831 280.49 434.445 280.746 434.007 280.831Z" fill="#C99191"/>
<path d="M429.355 287.734L416.973 290.145C416.536 290.231 416.082 290.139 415.712 289.889C415.342 289.64 415.086 289.254 415.001 288.816C414.916 288.378 415.008 287.924 415.257 287.555C415.507 287.185 415.893 286.929 416.33 286.844L428.712 284.433C428.928 284.39 429.151 284.391 429.368 284.435C429.584 284.479 429.79 284.565 429.973 284.689C430.156 284.812 430.313 284.971 430.435 285.155C430.557 285.339 430.642 285.545 430.684 285.762C430.726 285.979 430.725 286.202 430.681 286.418C430.637 286.635 430.551 286.84 430.428 287.023C430.304 287.207 430.146 287.364 429.962 287.486C429.778 287.608 429.571 287.692 429.355 287.734Z" fill="#C99191"/>
<path d="M461.972 252.51V261.339H382.084V252.51C382.084 251.626 382.257 250.751 382.595 249.935C382.933 249.119 383.429 248.377 384.054 247.752C384.678 247.127 385.42 246.632 386.236 246.294C387.053 245.956 387.928 245.782 388.811 245.782H455.245C456.128 245.782 457.003 245.956 457.819 246.294C458.636 246.632 459.377 247.127 460.002 247.752C460.627 248.377 461.122 249.119 461.46 249.935C461.798 250.751 461.972 251.626 461.972 252.51Z" fill="#F41010"/>
<path d="M621.501 264.104C621.04 262.616 620.258 261.246 619.21 260.092C618.162 258.939 616.874 258.028 615.437 257.426C613.999 256.824 612.447 256.544 610.89 256.607C609.332 256.669 607.808 257.073 606.423 257.788L515.026 224.996L511.001 247.829L602.107 272.882C603.463 275.129 605.596 276.8 608.102 277.578C610.608 278.357 613.312 278.19 615.703 277.108C618.093 276.026 620.004 274.104 621.073 271.708C622.141 269.311 622.294 266.606 621.501 264.104Z" fill="#FFB8B8"/>
<path opacity="0.2" d="M621.501 264.104C621.04 262.616 620.258 261.246 619.21 260.092C618.162 258.939 616.874 258.028 615.437 257.426C613.999 256.824 612.447 256.544 610.89 256.607C609.332 256.669 607.808 257.073 606.423 257.788L515.026 224.996L511.001 247.829L602.107 272.882C603.463 275.129 605.596 276.8 608.102 277.578C610.608 278.357 613.312 278.19 615.703 277.108C618.093 276.026 620.004 274.104 621.073 271.708C622.141 269.311 622.294 266.606 621.501 264.104Z" fill="#B63030"/>
<path d="M531.249 229.157L522.618 251.704C522.373 252.346 521.992 252.927 521.501 253.408C521.011 253.889 520.423 254.259 519.776 254.492C519.13 254.725 518.442 254.816 517.757 254.759C517.072 254.702 516.408 254.498 515.81 254.161L494.834 242.356C491.559 241.08 488.923 238.559 487.505 235.343C486.086 232.128 486.001 228.481 487.267 225.203C488.533 221.924 491.047 219.281 494.258 217.854C497.47 216.426 501.116 216.33 504.398 217.587L527.821 222.782C528.492 222.931 529.122 223.222 529.67 223.637C530.218 224.052 530.669 224.579 530.995 225.184C531.32 225.789 531.511 226.457 531.555 227.143C531.599 227.828 531.494 228.515 531.249 229.157Z" fill="#8F4A4A"/>
<path d="M628.695 284.982L595.946 299.868L600.246 316.055C608.549 347.313 610.752 379.879 606.736 411.97L630.68 416.971L650.528 366.359L643.581 308.8L628.695 284.982Z" fill="#8F4A4A"/>
<path d="M692.953 359.908C671.436 359.908 653.901 375.55 653.05 395.138H732.857C732.006 375.55 714.471 359.908 692.953 359.908Z" fill="#352BAA"/>
<path d="M676.203 363.284C675.083 274.863 624.726 282.997 624.726 282.997C624.726 282.997 625.668 310.52 626.12 311.376C658.21 372.09 605.25 443.269 537.836 430.175C536.565 429.928 535.344 429.677 534.173 429.423C525.631 427.64 518.09 422.67 513.082 415.524C508.074 408.378 505.977 399.593 507.216 390.955C513.857 337.628 480.828 338.572 480.828 338.572H432.531L407.45 315.999C406.564 315.202 405.497 314.634 404.342 314.345C403.187 314.056 401.978 314.054 400.822 314.34C399.665 314.626 398.597 315.191 397.709 315.986C396.822 316.78 396.143 317.78 395.731 318.897L392.504 327.655C392.504 327.655 344.869 332.617 348.839 379.26H363.566C363.53 380.585 363.583 381.912 363.725 383.23L473.634 382.336C480.076 382.284 485.763 387.504 485.79 393.947C485.796 395.515 485.486 397.069 484.879 398.515C484.271 399.961 483.378 401.27 482.253 402.363C481.127 403.455 479.793 404.31 478.33 404.876C476.867 405.441 475.305 405.705 473.737 405.653L456.018 405.063C450.56 429.376 463.957 445.751 478.719 456.047C492.617 465.601 509.11 470.666 525.975 470.561H574.113C636.635 470.561 647.551 417.964 647.551 417.964C680.3 404.07 676.203 363.284 676.203 363.284Z" fill="#352BAA"/>
<path d="M689.976 499.34C720.806 499.34 745.798 474.348 745.798 443.518C745.798 412.688 720.806 387.695 689.976 387.695C659.146 387.695 634.153 412.688 634.153 443.518C634.153 474.348 659.146 499.34 689.976 499.34Z" fill="#352BAA"/>
<path d="M689.976 457.2C697.532 457.2 703.658 451.074 703.658 443.518C703.658 435.962 697.532 429.836 689.976 429.836C682.42 429.836 676.294 435.962 676.294 443.518C676.294 451.074 682.42 457.2 689.976 457.2Z" fill="#C99191"/>
<path d="M408.134 499.34C443.623 499.34 472.392 470.571 472.392 435.083C472.392 399.594 443.623 370.825 408.134 370.825C372.646 370.825 343.876 399.594 343.876 435.083C343.876 470.571 372.646 499.34 408.134 499.34Z" fill="#352BAA"/>
<path d="M408.134 450.832C416.832 450.832 423.884 443.781 423.884 435.083C423.884 426.384 416.832 419.333 408.134 419.333C399.436 419.333 392.385 426.384 392.385 435.083C392.385 443.781 399.436 450.832 408.134 450.832Z" fill="#C99191"/>
<path d="M596.039 304.266L584.256 272.262C583.642 270.594 583.362 268.821 583.433 267.045C583.504 265.269 583.924 263.525 584.669 261.911C585.415 260.297 586.471 258.846 587.777 257.641C589.083 256.435 590.613 255.498 592.281 254.884L626.063 242.448C628.997 241.368 632.116 240.876 635.241 241C638.366 241.125 641.436 241.864 644.276 243.175C647.115 244.486 649.668 246.343 651.79 248.641C653.912 250.939 655.56 253.632 656.64 256.567C657.615 259.201 658.113 261.988 658.11 264.797C658.098 268.363 657.29 271.882 655.748 275.097C654.205 278.312 651.965 281.143 649.191 283.384C647.187 284.992 644.934 286.262 642.522 287.145L596.039 304.266Z" fill="#352BAA"/>
<path d="M657.614 264.797C657.611 268.29 656.825 271.739 655.314 274.889C653.802 278.038 651.604 280.809 648.88 282.997C644.702 281.895 640.814 279.896 637.486 277.139C634.158 274.382 631.47 270.934 629.61 267.034C627.749 263.133 626.761 258.874 626.712 254.553C626.664 250.232 627.558 245.952 629.33 242.011C632.734 241.271 636.261 241.302 639.651 242.103C643.041 242.904 646.209 244.454 648.921 246.64C651.634 248.825 653.823 251.59 655.327 254.732C656.831 257.874 657.613 261.313 657.614 264.797Z" fill="#8F4A4A"/>
<path d="M357.274 385.711C364.947 385.711 371.167 378.157 371.167 368.84C371.167 359.522 364.947 351.969 357.274 351.969C349.601 351.969 343.38 359.522 343.38 368.84C343.38 378.157 349.601 385.711 357.274 385.711Z" fill="#8F4A4A"/>
<path d="M540.929 428.559H553.095L558.884 397.003L540.927 397.004L540.929 428.559Z" fill="#FFB8B8"/>
<path d="M537.825 424.586L561.785 424.585H561.786C563.792 424.585 565.777 424.98 567.63 425.748C569.482 426.515 571.166 427.64 572.583 429.057C574.001 430.475 575.126 432.159 575.894 434.011C576.661 435.864 577.056 437.849 577.056 439.855V440.351L537.826 440.352L537.825 424.586Z" fill="#4D49A0"/>
<path d="M555.051 415.607C554.909 415.607 554.767 415.6 554.624 415.587L537.786 414.361C537.105 414.298 536.448 414.079 535.865 413.722C535.282 413.364 534.789 412.878 534.423 412.3C534.058 411.721 533.831 411.067 533.758 410.387C533.686 409.707 533.77 409.019 534.006 408.377L556.54 357.751C556.701 357.299 556.767 356.819 556.733 356.341C556.7 355.863 556.567 355.397 556.345 354.973C556.123 354.543 555.813 354.166 555.435 353.865C555.057 353.564 554.619 353.346 554.151 353.227C543.555 350.457 516.368 343.082 492.834 334.452C482.751 330.755 476.401 325.412 473.96 318.572C470.741 309.554 475.502 301.33 475.707 300.985L475.866 300.715L498.011 302.728L522.019 304.769L574.629 332.981C579.038 335.365 582.386 339.322 584.008 344.064C585.63 348.806 585.406 353.985 583.381 358.569L559.126 412.96C558.775 413.748 558.203 414.417 557.48 414.887C556.757 415.357 555.913 415.607 555.051 415.607Z" fill="#4D49A0"/>
<path d="M501.862 202.565C515.324 202.565 526.237 191.653 526.237 178.191C526.237 164.729 515.324 153.817 501.862 153.817C488.401 153.817 477.488 164.729 477.488 178.191C477.488 191.653 488.401 202.565 501.862 202.565Z" fill="#FFB8B8"/>
<path d="M533.982 431.536H546.149L551.937 399.98L533.98 399.981L533.982 431.536Z" fill="#FFB8B8"/>
<path d="M530.878 427.564L554.838 427.563H554.84C556.845 427.563 558.83 427.957 560.683 428.725C562.535 429.492 564.219 430.617 565.637 432.035C567.055 433.453 568.179 435.136 568.947 436.988C569.714 438.841 570.109 440.827 570.109 442.832V443.328L530.879 443.33L530.878 427.564Z" fill="#4D49A0"/>
<path d="M548.104 418.584C547.962 418.584 547.82 418.578 547.677 418.564L530.839 417.338C530.158 417.275 529.501 417.056 528.918 416.699C528.335 416.341 527.842 415.855 527.477 415.277C527.111 414.699 526.884 414.044 526.811 413.364C526.739 412.684 526.824 411.997 527.059 411.355L549.593 360.728C549.754 360.276 549.82 359.797 549.786 359.319C549.753 358.84 549.621 358.375 549.398 357.95C549.176 357.521 548.866 357.143 548.488 356.842C548.11 356.541 547.672 356.323 547.204 356.204C536.608 353.434 509.421 346.059 485.887 337.429C475.804 333.732 469.454 328.389 467.013 321.549C463.794 312.531 468.556 304.307 468.76 303.962L468.92 303.692L491.065 305.705L515.072 307.747L567.683 335.958C572.091 338.342 575.439 342.299 577.061 347.041C578.683 351.783 578.459 356.962 576.434 361.547L552.179 415.938C551.828 416.725 551.256 417.395 550.533 417.864C549.81 418.334 548.966 418.584 548.104 418.584Z" fill="#4D49A0"/>
<path d="M509.379 216.387L483.577 207.455C483.577 207.455 467.379 219.9 475.16 250.772C479.223 266.703 478.039 283.52 471.786 298.725C471.033 300.606 470.165 302.439 469.187 304.214C469.187 304.214 497.967 338.948 524.761 313.146L514.341 263.03C514.341 263.03 530.716 229.784 509.379 216.387Z" fill="#8F4A4A"/>
<path d="M504.888 203.394C501.419 198.202 498.682 191.002 502.501 186.061C506.271 181.184 513.707 181.903 519.482 179.745C527.524 176.739 532.188 167.291 530.734 158.829C529.279 150.368 522.486 143.354 514.395 140.483C506.303 137.613 497.178 138.547 489.254 141.852C479.499 145.92 471.132 153.791 467.623 163.76C464.114 173.73 465.99 185.7 473.269 193.363C481.073 201.579 493.321 203.768 504.651 203.635" fill="#4D49A0"/>
<path d="M482.215 159.101C477.844 162.66 471.174 161.079 466.482 157.956C461.79 154.833 457.982 150.386 452.905 147.937C443.954 143.62 433.133 146.49 424.421 151.271C415.71 156.053 407.988 162.659 398.787 166.412C389.585 170.164 377.843 170.35 370.875 163.264C369.161 168.232 369.021 173.608 370.474 178.658C371.927 183.709 374.904 188.188 378.997 191.484C383.09 194.78 388.1 196.734 393.344 197.078C398.588 197.421 403.811 196.139 408.299 193.405C418.381 187.263 423.95 174.387 435.258 170.997C441.516 169.121 448.235 170.632 454.56 172.268C460.884 173.905 467.479 175.673 473.861 174.28C480.243 172.887 486.213 167.151 485.401 160.669L482.215 159.101Z" fill="#4D49A0"/>
<path d="M620.288 263.112C619.647 261.691 618.702 260.429 617.52 259.413C616.338 258.397 614.947 257.653 613.446 257.233C611.945 256.812 610.371 256.726 608.833 256.981C607.295 257.235 605.832 257.823 604.546 258.704L509.802 237.44L508.625 260.594L602.125 274.215C603.748 276.277 606.071 277.672 608.654 278.136C611.237 278.6 613.9 278.1 616.139 276.731C618.378 275.362 620.037 273.22 620.801 270.71C621.566 268.2 621.384 265.496 620.288 263.112Z" fill="#FFB8B8"/>
<path d="M526.414 239.567L520.631 263.007C520.467 263.674 520.16 264.297 519.733 264.835C519.306 265.373 518.768 265.813 518.155 266.124C517.543 266.435 516.87 266.61 516.184 266.638C515.498 266.666 514.813 266.546 514.178 266.285L491.906 257.158C488.496 256.298 485.567 254.121 483.761 251.105C481.954 248.088 481.418 244.478 482.271 241.067C483.123 237.656 485.293 234.722 488.306 232.909C491.319 231.096 494.928 230.553 498.341 231.398L522.226 233.663C522.909 233.728 523.571 233.94 524.166 234.284C524.761 234.628 525.274 235.096 525.672 235.656C526.069 236.216 526.341 236.855 526.469 237.53C526.597 238.205 526.578 238.9 526.414 239.567Z" fill="#8F4A4A"/>
<path d="M609.343 281.509C613.18 281.509 616.29 278.398 616.29 274.562C616.29 270.725 613.18 267.615 609.343 267.615C605.507 267.615 602.396 270.725 602.396 274.562C602.396 278.398 605.507 281.509 609.343 281.509Z" fill="#8F4A4A"/>
<path d="M916.978 499.837C916.977 500.1 916.872 500.352 916.686 500.538C916.5 500.723 916.248 500.828 915.985 500.829H95.2705C95.0073 500.829 94.7549 500.724 94.5687 500.538C94.3826 500.352 94.2781 500.1 94.2781 499.837C94.2781 499.573 94.3826 499.321 94.5687 499.135C94.7549 498.949 95.0073 498.844 95.2705 498.844H915.985C916.248 498.845 916.5 498.95 916.686 499.136C916.872 499.322 916.977 499.574 916.978 499.837Z" fill="#352BAA"/>
</g>
<path d="M812.776 231.513C867.584 231.513 912.016 187.082 912.016 132.273C912.016 77.4641 867.584 33.0328 812.776 33.0328C757.967 33.0328 713.536 77.4641 713.536 132.273C713.536 187.082 757.967 231.513 812.776 231.513Z" fill="#352BAA"/>
<path d="M812.776 223.298C863.047 223.298 903.8 182.544 903.8 132.273C903.8 82.0012 863.047 41.248 812.776 41.248C762.504 41.248 721.751 82.0012 721.751 132.273C721.751 182.544 762.504 223.298 812.776 223.298Z" fill="#C99191"/>
<path d="M812.447 144.76C819.162 144.76 824.606 139.316 824.606 132.601C824.606 125.886 819.162 120.443 812.447 120.443C805.732 120.443 800.289 125.886 800.289 132.601C800.289 139.316 805.732 144.76 812.447 144.76Z" fill="#352BAA"/>
<path d="M815.076 45.8486H809.818V55.7069H815.076V45.8486Z" fill="#352BAA"/>
<path d="M815.076 209.496H809.818V219.354H815.076V209.496Z" fill="#352BAA"/>
<path d="M735.552 135.23V129.973H725.694V135.23H735.552Z" fill="#352BAA"/>
<path d="M899.2 135.23V129.973H889.342V135.23H899.2Z" fill="#352BAA"/>
<path d="M808.942 137.88L813.435 127.605L869.737 158.787L808.942 137.88Z" fill="#352BAA"/>
<path d="M825.591 9.04431H799.96V38.6191H825.591V9.04431Z" fill="#352BAA"/>
<path d="M812.776 17.2595C829.109 17.2595 842.351 13.5814 842.351 9.0443C842.351 4.50715 829.109 0.829071 812.776 0.829071C796.442 0.829071 783.201 4.50715 783.201 9.0443C783.201 13.5814 796.442 17.2595 812.776 17.2595Z" fill="#352BAA"/>
<path d="M73.3347 95.1071C98.5467 95.1071 118.985 74.6688 118.985 49.4567C118.985 24.2447 98.5467 3.80634 73.3347 3.80634C48.1227 3.80634 27.6843 24.2447 27.6843 49.4567C27.6843 74.6688 48.1227 95.1071 73.3347 95.1071Z" fill="#FF6584"/>
<path d="M112.141 273.63C174.075 273.63 224.282 223.422 224.282 161.489C224.282 99.5547 174.075 49.3474 112.141 49.3474C50.2073 49.3474 0 99.5547 0 161.489C0 223.422 50.2073 273.63 112.141 273.63Z" fill="#8F4A4A"/>
<path d="M122.951 499.263H99.9814L110.452 144.6L122.951 499.263Z" fill="#352BAA"/>
<path d="M112.479 211.817L137.137 177.702L112.141 220.261L109.439 215.532L112.479 211.817Z" fill="#352BAA"/>
<path d="M109.776 246.27L85.1191 212.155L110.115 254.714L112.817 249.985L109.776 246.27Z" fill="#352BAA"/>
<defs>
<clipPath id="clip0_120_414">
<rect width="822.7" height="362.056" fill="white" transform="translate(94.2781 138.773)"/>
</clipPath>
</defs>
</svg>
