<svg width="847" height="683" viewBox="0 0 847 683" fill="none" xmlns="http://www.w3.org/2000/svg">
<g clip-path="url(#clip0_120_416)">
<path d="M846.578 680.583H33.5776V682.583H846.578V680.583Z" fill="#2B2752"/>
<path d="M547.39 159.95H545.12V45.9897C545.12 35.649 541.012 25.7318 533.7 18.4198C526.388 11.1078 516.471 7 506.13 7H252.34C241.999 7 232.082 11.1078 224.77 18.4198C217.458 25.7318 213.35 35.649 213.35 45.9897V95.9199H212.49C211.883 95.9199 211.3 96.1612 210.871 96.5907C210.441 97.0201 210.2 97.6026 210.2 98.2099V120.54C210.2 121.147 210.441 121.73 210.871 122.159C211.3 122.589 211.883 122.83 212.49 122.83H213.35V145.18H212.29C211.989 145.18 211.691 145.239 211.414 145.354C211.136 145.469 210.883 145.638 210.671 145.851C210.458 146.063 210.289 146.316 210.174 146.594C210.059 146.872 210 147.169 210 147.47V189.73C210 190.337 210.241 190.92 210.671 191.349C211.1 191.779 211.683 192.02 212.29 192.02H213.35V208.41H212.39C212.089 208.41 211.792 208.469 211.514 208.584C211.236 208.699 210.983 208.868 210.771 209.08C210.558 209.293 210.389 209.546 210.274 209.823C210.159 210.101 210.1 210.399 210.1 210.7V253.36C210.1 253.967 210.341 254.55 210.771 254.979C211.2 255.409 211.783 255.65 212.39 255.65H213.35V642.28C213.35 652.621 217.458 662.538 224.77 669.85C232.082 677.162 241.999 681.27 252.34 681.27H506.13C516.471 681.27 526.388 677.162 533.7 669.85C541.012 662.538 545.12 652.621 545.12 642.28V241.68H547.39C547.997 241.68 548.58 241.439 549.009 241.009C549.439 240.58 549.68 239.998 549.68 239.39V162.24C549.68 161.632 549.439 161.05 549.009 160.621C548.58 160.191 547.997 159.95 547.39 159.95Z" fill="#2B2752"/>
<path d="M389.69 37.0396H351.1C349.942 37.0384 348.831 36.5777 348.012 35.7587C347.192 34.9396 346.731 33.8289 346.73 32.6704V30.9995C346.731 29.841 347.192 28.7304 348.012 27.9113C348.831 27.0923 349.942 26.6316 351.1 26.6304H389.69C390.848 26.6316 391.959 27.0923 392.778 27.9113C393.598 28.7304 394.059 29.841 394.06 30.9995V32.6704C394.059 33.8289 393.598 34.9395 392.778 35.7586C391.959 36.5777 390.848 37.0384 389.69 37.0396Z" fill="#1B1B1F"/>
<path d="M405.9 37.18C408.849 37.18 411.24 34.7892 411.24 31.84C411.24 28.8908 408.849 26.5 405.9 26.5C402.951 26.5 400.56 28.8908 400.56 31.84C400.56 34.7892 402.951 37.18 405.9 37.18Z" fill="#1B1B1F"/>
<path d="M498.28 24.56H460.28V29.13C460.28 34.8852 457.994 40.4047 453.925 44.4742C449.855 48.5438 444.336 50.83 438.58 50.83H317.52C314.672 50.8313 311.851 50.2716 309.219 49.1828C306.587 48.094 304.195 46.4974 302.18 44.4842C300.165 42.4711 298.566 40.0807 297.475 37.4497C296.384 34.8186 295.822 31.9984 295.82 29.15V24.56H260.19C253.202 24.56 246.5 27.3362 241.558 32.2778C236.616 37.2193 233.84 43.9216 233.84 50.91V637.35C233.84 644.339 236.616 651.041 241.558 655.982C246.5 660.924 253.202 663.7 260.19 663.7H498.28C505.266 663.7 511.966 660.925 516.906 655.985C521.845 651.046 524.62 644.346 524.62 637.36V50.91C524.622 47.451 523.942 44.0256 522.619 40.8294C521.297 37.6332 519.358 34.7287 516.913 32.2819C514.468 29.8351 511.565 27.8938 508.369 26.5689C505.174 25.2439 501.749 24.5613 498.29 24.56H498.28Z" fill="#1B1B1F"/>
<path d="M430.231 592.539H328.23C320.937 592.539 313.942 589.641 308.785 584.484C303.627 579.327 300.73 572.332 300.73 565.039C300.73 557.745 303.627 550.751 308.785 545.593C313.942 540.436 320.937 537.539 328.23 537.539H430.231C437.524 537.539 444.519 540.436 449.676 545.593C454.833 550.751 457.731 557.745 457.731 565.039C457.731 572.332 454.833 579.327 449.676 584.484C444.519 589.641 437.524 592.539 430.231 592.539Z" fill="#5633A2"/>
<path d="M470.231 366.65H288.23C285.71 366.65 283.294 365.649 281.513 363.867C279.731 362.086 278.73 359.669 278.73 357.15C278.73 354.63 279.731 352.214 281.513 350.432C283.294 348.651 285.71 347.65 288.23 347.65H470.231C472.75 347.65 475.166 348.651 476.948 350.432C478.73 352.214 479.731 354.63 479.731 357.15C479.731 359.669 478.73 362.086 476.948 363.867C475.166 365.649 472.75 366.65 470.231 366.65Z" fill="#492222"/>
<path d="M470.231 394.65H288.23C285.71 394.65 283.294 393.649 281.513 391.867C279.731 390.086 278.73 387.669 278.73 385.15C278.73 382.63 279.731 380.214 281.513 378.432C283.294 376.651 285.71 375.65 288.23 375.65H470.231C472.75 375.65 475.166 376.651 476.948 378.432C478.73 380.214 479.731 382.63 479.731 385.15C479.731 387.669 478.73 390.086 476.948 391.867C475.166 393.649 472.75 394.65 470.231 394.65Z" fill="#492222"/>
<path d="M470.231 422.65H288.23C285.71 422.65 283.294 421.649 281.513 419.867C279.731 418.086 278.73 415.67 278.73 413.15C278.73 410.63 279.731 408.214 281.513 406.432C283.294 404.651 285.71 403.65 288.23 403.65H470.231C472.75 403.65 475.166 404.651 476.948 406.432C478.73 408.214 479.731 410.63 479.731 413.15C479.731 415.67 478.73 418.086 476.948 419.867C475.166 421.649 472.75 422.65 470.231 422.65Z" fill="#492222"/>
<path d="M470.231 450.65H288.23C285.71 450.65 283.294 449.649 281.513 447.867C279.731 446.086 278.73 443.67 278.73 441.15C278.73 438.63 279.731 436.214 281.513 434.432C283.294 432.651 285.71 431.65 288.23 431.65H470.231C472.75 431.65 475.166 432.651 476.948 434.432C478.73 436.214 479.731 438.63 479.731 441.15C479.731 443.67 478.73 446.086 476.948 447.867C475.166 449.649 472.75 450.65 470.231 450.65Z" fill="#492222"/>
<path d="M346.231 478.65H288.23C285.71 478.65 283.294 477.649 281.513 475.867C279.731 474.086 278.73 471.67 278.73 469.15C278.73 466.63 279.731 464.214 281.513 462.432C283.294 460.651 285.71 459.65 288.23 459.65H346.23C348.75 459.65 351.166 460.651 352.948 462.432C354.73 464.214 355.73 466.63 355.73 469.15C355.73 471.67 354.73 474.086 352.948 475.867C351.166 477.649 348.75 478.65 346.231 478.65Z" fill="#492222"/>
<path d="M498.716 288.799H259.745C257.632 288.796 255.607 287.956 254.113 286.462C252.619 284.969 251.779 282.943 251.776 280.831V103.469C251.779 101.357 252.619 99.3313 254.113 97.8376C255.607 96.3438 257.632 95.5036 259.745 95.5013H498.716C500.829 95.5037 502.854 96.3439 504.348 97.8376C505.842 99.3314 506.682 101.357 506.684 103.469V280.831C506.682 282.943 505.842 284.969 504.348 286.462C502.854 287.956 500.829 288.796 498.716 288.799Z" fill="#492222"/>
<g opacity="0.1">
<path d="M541.044 238.17C541.044 236.797 541.044 235.417 541.044 234.03C540.989 235.099 540.989 236.171 541.044 237.24C541.034 237.55 541.044 237.86 541.044 238.17Z" fill="black"/>
</g>
<path d="M667.539 655.449C668.269 655.476 668.99 655.277 669.604 654.88C670.217 654.484 670.694 653.908 670.97 653.231C671.245 652.554 671.306 651.809 671.144 651.097C670.982 650.384 670.604 649.739 670.063 649.248C669.97 648.891 669.903 648.636 669.81 648.279C670.491 646.498 671.689 644.961 673.25 643.865C674.811 642.769 676.664 642.164 678.57 642.128C680.477 642.092 682.351 642.626 683.953 643.662C685.554 644.698 686.809 646.189 687.558 647.943C691.876 657.789 697.44 667.971 694.825 678.885C712.419 640.658 705.861 593.378 679.014 561.085C671.641 557.114 665.627 549.992 664 541.671C667.642 542.867 672.14 539.871 669.374 536.073C668.177 534.622 666.969 533.184 665.772 531.734C679.422 516.916 696.072 539.841 681.082 559.808C686.107 565.986 690.472 572.672 694.106 579.758C693.211 572.206 694.121 564.549 696.762 557.417C699.444 550.768 704.537 545.141 709.013 539.373C714.456 532.344 725.827 535.454 726.652 544.3C721.583 546.02 720.993 553.371 726.819 554.321C725.452 570.804 714.837 586.041 700.087 593.405C705.705 608.708 707.998 625.032 706.812 641.29C709.247 622.279 729.583 617.478 743.756 609.796C744.657 609.206 745.71 608.891 746.788 608.889C747.865 608.888 748.919 609.2 749.822 609.787C750.725 610.374 751.437 611.212 751.872 612.197C752.307 613.182 752.446 614.273 752.272 615.336C750.314 616.154 748.441 617.165 746.683 618.353C745.859 618.919 745.23 619.725 744.882 620.662C744.534 621.599 744.485 622.62 744.741 623.586C744.996 624.553 745.545 625.416 746.31 626.058C747.076 626.701 748.021 627.09 749.017 627.174C742.006 645.014 723.556 657.124 704.489 657.238C702.732 665.218 700.151 672.993 696.787 680.439L668.489 680.709C668.384 680.395 668.29 680.071 668.196 679.758C670.817 679.897 673.445 679.716 676.021 679.217C669.013 671.078 663.615 666.942 667.539 655.449Z" fill="#8E5454"/>
<path d="M711.086 216.657C709.092 216.966 707.298 218.04 706.085 219.652C704.871 221.264 704.335 223.285 704.59 225.287C704.648 225.693 704.739 226.093 704.864 226.484L683.366 242.848L687.832 256.678L714.857 231.077C716.438 230.436 717.762 229.291 718.623 227.818C719.484 226.346 719.834 224.63 719.617 222.938C719.484 221.977 719.164 221.051 718.673 220.213C718.183 219.376 717.532 218.643 716.759 218.057C715.985 217.471 715.104 217.043 714.165 216.797C713.226 216.552 712.248 216.494 711.286 216.626C711.219 216.635 711.152 216.645 711.086 216.657Z" fill="#FFB6B6"/>
<path d="M562.788 292.529C562.926 295.917 564.382 299.117 566.847 301.447C569.311 303.777 572.588 305.052 575.979 305L616.568 304.379L667.893 280.575C667.893 280.575 684.631 266.368 689.298 266.033C693.965 265.699 696.45 270.041 695.392 266.076C694.335 262.112 692.936 259.458 696.522 259.828C700.109 260.199 699.538 252.883 700.331 250.116C701.124 247.348 690.215 237.361 690.215 237.361C690.215 237.361 682.354 237.513 681.839 238.546C681.324 239.579 683.115 242.182 678.89 242.071C674.666 241.959 671.439 242.137 671.308 244.099C671.176 246.06 671.483 247.589 669.142 249.109C666.801 250.628 656.234 258.46 656.234 258.46L572.623 279.385C569.722 280.111 567.16 281.814 565.369 284.208C563.577 286.602 562.666 289.541 562.788 292.529Z" fill="#2B2752"/>
<path d="M584.521 661.764H595.559L600.811 619.19H584.521V661.764Z" fill="#FFB6B6"/>
<path d="M580.919 654.204L598.553 653.152V660.707L615.318 672.286C616.146 672.857 616.77 673.679 617.098 674.63C617.426 675.581 617.441 676.613 617.142 677.573C616.842 678.534 616.244 679.374 615.433 679.97C614.623 680.567 613.643 680.888 612.636 680.888H591.642L588.024 673.415L586.611 680.888H578.695L580.919 654.204Z" fill="#433E9B"/>
<path d="M602.955 389L608.955 352L566.955 342V380.331L602.955 389Z" fill="#FFB6B6"/>
<path d="M550.455 424.5L570.989 557.977C570.989 557.977 569.781 615.988 579.118 629.244L581.455 643.5H602.522C602.522 643.5 602.134 634.744 604.294 629.622C606.455 624.5 609.455 627.894 606.455 623.197C603.455 618.5 603.134 619.02 604.294 615.26C605.455 611.5 606.132 441.024 606.132 441.024L550.455 424.5Z" fill="#433E9B"/>
<path d="M562.962 596.211L569.358 605.206L607.099 584.817L597.659 571.54L562.962 596.211Z" fill="#FFB6B6"/>
<path d="M567.036 588.894L578.112 602.656L571.955 607.034L572.233 627.406C572.247 628.413 571.939 629.397 571.354 630.216C570.769 631.034 569.937 631.645 568.981 631.957C568.024 632.27 566.993 632.269 566.037 631.954C565.081 631.639 564.251 631.026 563.668 630.206L551.503 613.096L555.496 605.817L548.587 608.996L544 602.545L567.036 588.894Z" fill="#433E9B"/>
<path d="M564.954 358L564.668 373.486C564.668 373.486 526.711 406.796 555.332 447.398C555.332 447.398 558.939 459.087 563.947 458.544C568.954 458 571.504 460.794 570.229 463.397C568.954 466 617.616 497.669 617.616 497.669C617.616 497.669 585.543 568.381 577.954 584L582.954 600C582.954 600 580.306 606.189 584.38 603.844C588.454 601.5 586.45 601.18 590.952 600.34C595.454 599.5 601.004 597.571 600.729 596.535C600.454 595.5 656.714 508.454 656.714 508.454C656.714 508.454 670.195 494.114 660.325 477.307C658.954 477 658.918 477.307 658.918 477.307L610.671 422.364L604.954 386L564.954 358Z" fill="#433E9B"/>
<path d="M608.359 258.725L584.056 247.335L576.78 259.995C576.78 259.995 557.238 287.882 556.954 308C556.671 328.118 560.139 334.101 560.139 334.101C560.139 334.101 551.713 340.4 555.926 344.25C560.139 348.101 569.466 349.762 562.302 351.431C555.139 353.101 556.954 370 564.954 373C572.954 376 615.919 375.974 615.919 375.974C615.532 374.664 615.504 373.274 615.836 371.949C616.168 370.624 616.849 369.412 617.808 368.439C621.139 365.101 624.139 367.496 621.139 362.299C618.139 357.101 613.139 360.101 617.139 353.101C621.139 346.101 621.138 344.009 621.138 344.009C621.138 344.009 630.88 327.208 617.009 311.654C603.139 296.101 616.89 310.588 616.89 310.588L606.972 277.353L608.359 258.725Z" fill="#2B2752"/>
<path d="M706.821 357H672.088C667.546 356.995 663.191 355.188 659.979 351.976C656.766 348.764 654.96 344.409 654.955 339.866V305.134C654.96 300.591 656.766 296.236 659.979 293.024C663.191 289.812 667.546 288.005 672.088 288H706.821C711.363 288.005 715.718 289.812 718.931 293.024C722.143 296.236 723.95 300.591 723.955 305.134V339.866C723.95 344.409 722.143 348.764 718.931 351.976C715.718 355.188 711.363 356.995 706.821 357Z" fill="#5633A2"/>
<path d="M724.821 225H690.088C685.546 224.995 681.191 223.188 677.979 219.976C674.766 216.764 672.96 212.409 672.955 207.866V173.134C672.96 168.591 674.766 164.236 677.979 161.024C681.191 157.812 685.546 156.005 690.088 156H724.821C729.363 156.005 733.718 157.812 736.931 161.024C740.143 164.236 741.95 168.591 741.955 173.134V207.866C741.95 212.409 740.143 216.764 736.931 219.976C733.718 223.188 729.363 224.995 724.821 225Z" fill="#5633A2"/>
<path d="M630.83 245.477L630.851 245.474C631.973 245.341 632.995 244.768 633.694 243.881C634.393 242.995 634.71 241.867 634.577 240.745L631.794 217.152C631.3 212.925 629.961 208.84 627.856 205.141C623.737 197.923 616.992 192.572 609.026 190.205C604.914 188.988 600.598 188.616 596.339 189.112C578.912 191.14 573.432 196.032 568.457 224.337C563.481 252.642 571.244 247.966 571.244 247.966C571.31 248.535 571.491 249.084 571.774 249.582C572.329 250.552 573.237 251.271 574.309 251.587C574.859 251.749 575.436 251.798 576.006 251.733C597.294 252.544 618.823 253.586 630.834 245.476L630.83 245.477Z" fill="#433E9B"/>
<path d="M584.896 214.48C583.164 218.772 582.743 223.482 583.686 228.013C584.629 232.545 586.893 236.695 590.194 239.94C593.494 243.186 597.682 245.38 602.229 246.246C606.776 247.113 611.477 246.612 615.74 244.808C618.564 243.624 621.124 241.891 623.273 239.709C625.422 237.528 627.117 234.942 628.26 232.101C629.986 227.811 630.405 223.106 629.461 218.578C628.518 214.051 626.255 209.905 622.958 206.662C619.661 203.419 615.478 201.224 610.936 200.355C606.394 199.486 601.696 199.982 597.435 201.779C594.608 202.961 592.044 204.692 589.892 206.873C587.74 209.053 586.041 211.638 584.896 214.48Z" fill="#FFB6B6"/>
<path d="M639.504 218.19C639.112 214.846 638.053 211.616 636.388 208.69C634.515 201.062 630.8 194.585 621.499 196.881C618.267 195.926 614.877 195.63 611.529 196.012L606.804 196.546C606.751 196.552 606.698 196.558 606.645 196.564C600.042 197.347 594.02 200.721 589.904 205.944C585.789 211.167 583.916 217.811 584.699 224.414L584.755 224.887L594.75 223.749L597.033 213.831L598.839 223.285L604.001 222.699L605.153 217.695L606.064 222.462C614.986 227.467 626.444 225.378 639.555 218.664L639.504 218.19Z" fill="#433E9B"/>
<path d="M612.887 246.839C613.133 247.584 613.166 248.382 612.981 249.144C612.889 249.534 612.743 249.908 612.547 250.257C612.379 250.555 612.176 250.832 611.943 251.081C611.253 251.82 610.323 252.288 609.319 252.402C609.256 252.409 609.193 252.414 609.13 252.419C609.067 252.423 609.004 252.426 608.941 252.428C608.877 252.43 608.814 252.43 608.75 252.429C608.687 252.428 608.623 252.425 608.558 252.421L604.937 252.195L598.823 242.338L599.95 251.894L583.488 250.894L578.704 210.34L605.743 207.282L605.167 208.137C603.256 211.002 602.173 214.339 602.037 217.779C601.917 221.263 602.394 224.741 603.448 228.063C604.488 231.427 605.849 234.684 607.512 237.788C608.97 240.54 610.586 243.206 612.351 245.772C612.579 246.101 612.759 246.46 612.887 246.839Z" fill="#433E9B"/>
<path d="M676.534 284.278C674.657 285.018 673.143 286.461 672.314 288.3C671.485 290.14 671.407 292.23 672.096 294.126C672.242 294.509 672.419 294.879 672.626 295.233L655.256 315.926L662.655 328.435L683.385 297.515C684.786 296.543 685.826 295.134 686.342 293.508C686.858 291.882 686.822 290.131 686.238 288.529C685.897 287.62 685.381 286.787 684.718 286.078C684.056 285.369 683.26 284.797 682.376 284.396C681.493 283.994 680.539 283.771 679.569 283.738C678.599 283.705 677.632 283.863 676.723 284.204C676.659 284.228 676.596 284.253 676.534 284.278Z" fill="#FFB6B6"/>
<path d="M585.559 280.127C583.809 280.918 582.25 282.076 580.988 283.523C579.725 284.97 578.79 286.672 578.244 288.513C577.698 290.354 577.555 292.291 577.825 294.192C578.095 296.093 578.771 297.914 579.807 299.53L596.454 325.5L635.454 360.5C635.454 360.5 667.454 337.5 668.454 329.5C669.454 321.5 666.454 319.5 669.454 321.5C672.454 323.5 675.454 322.5 674.454 321.5C673.454 320.5 673.846 320.437 674.65 318.969C675.454 317.5 678.454 310.5 678.454 310.5L667.828 300C667.828 300 656.454 305.5 655.454 308.5C654.454 311.5 658.454 310.5 654.454 311.5C650.454 312.5 645.111 307.965 649.282 312.732C653.454 317.5 653.111 319.571 649.282 319.535C645.454 319.5 638.454 329.5 638.454 329.5L601.45 283.888C599.589 281.594 597.02 279.981 594.145 279.3C591.27 278.62 588.251 278.911 585.559 280.127Z" fill="#2B2752"/>
<g clip-path="url(#clip1_120_416)">
<path d="M296.3 226.309H295.489C295.381 226.309 295.278 226.268 295.202 226.197C295.126 226.126 295.084 226.029 295.083 225.928V225.167C295.084 225.066 295.126 224.969 295.202 224.898C295.278 224.827 295.381 224.787 295.489 224.787H296.3C296.407 224.787 296.51 224.827 296.586 224.898C296.662 224.969 296.705 225.066 296.705 225.167V225.928C296.705 226.029 296.662 226.126 296.586 226.197C296.51 226.268 296.407 226.309 296.3 226.309Z" fill="#3DCA86"/>
<path d="M295.909 225.47C295.894 225.47 295.878 225.469 295.863 225.466C295.828 225.461 295.795 225.449 295.765 225.431C295.735 225.413 295.709 225.39 295.688 225.363C295.668 225.336 295.653 225.305 295.645 225.272C295.638 225.24 295.637 225.206 295.643 225.173L298.315 210.574C298.328 210.508 298.368 210.45 298.426 210.411C298.485 210.373 298.557 210.358 298.627 210.369C298.698 210.38 298.76 210.417 298.802 210.472C298.843 210.527 298.86 210.594 298.848 210.66L296.175 225.259C296.164 225.318 296.132 225.372 296.083 225.41C296.035 225.449 295.973 225.47 295.909 225.47Z" fill="#3DCA86"/>
<path d="M295.909 225.47C295.845 225.47 295.783 225.449 295.735 225.41C295.686 225.372 295.653 225.318 295.643 225.259L292.97 210.66C292.958 210.594 292.975 210.527 293.016 210.472C293.058 210.417 293.12 210.38 293.191 210.369C293.261 210.358 293.333 210.373 293.392 210.411C293.45 210.45 293.49 210.508 293.503 210.574L296.175 225.173C296.181 225.206 296.18 225.24 296.173 225.272C296.165 225.305 296.15 225.336 296.13 225.363C296.109 225.39 296.083 225.413 296.053 225.431C296.023 225.449 295.99 225.461 295.955 225.466C295.94 225.469 295.924 225.47 295.909 225.47Z" fill="#3DCA86"/>
<path d="M301.663 208.075C301.924 206.343 300.938 204.78 299.461 204.584C297.985 204.389 296.577 205.634 296.316 207.367C296.096 208.828 296.765 210.165 297.865 210.667L297.802 211.083L299.139 211.26L299.202 210.844C300.407 210.648 301.443 209.537 301.663 208.075Z" fill="#FF6584"/>
<path d="M295.456 207.287C295.136 205.563 293.686 204.361 292.217 204.601C290.748 204.841 289.816 206.433 290.136 208.157C290.406 209.611 291.48 210.69 292.691 210.85L292.768 211.264L294.098 211.046L294.021 210.632C295.104 210.098 295.726 208.741 295.456 207.287Z" fill="#3DCA86"/>
<path d="M295.894 225.167C295.822 225.167 295.753 225.14 295.703 225.093C295.652 225.045 295.624 224.981 295.624 224.913V209.906C295.623 209.872 295.63 209.839 295.643 209.808C295.657 209.777 295.677 209.749 295.702 209.725C295.727 209.701 295.757 209.682 295.79 209.669C295.823 209.656 295.858 209.65 295.894 209.65C295.929 209.65 295.965 209.656 295.998 209.669C296.031 209.682 296.061 209.701 296.086 209.725C296.111 209.749 296.131 209.777 296.144 209.808C296.158 209.839 296.164 209.872 296.164 209.906V224.913C296.164 224.981 296.136 225.045 296.085 225.093C296.034 225.14 295.965 225.167 295.894 225.167Z" fill="#3DCA86"/>
<path d="M298.426 207.023C298.426 205.273 297.218 203.855 295.726 203.855C294.235 203.855 293.026 205.273 293.026 207.023C293.026 208.499 293.887 209.735 295.051 210.087V210.508H296.401V210.087C297.565 209.735 298.426 208.499 298.426 207.023Z" fill="#5633A2"/>
<path d="M421.745 288.3L421.691 288.295L337.165 280.925L260.302 287.627C259.25 287.719 258.188 287.603 257.186 287.288C256.183 286.973 255.262 286.465 254.48 285.796C253.699 285.128 253.075 284.314 252.648 283.406C252.221 282.498 252 281.517 252 280.524V108.928C251.992 107.148 252.697 105.431 253.974 104.115C255.251 102.8 257.008 101.982 258.897 101.825L337.165 95L337.219 95.0048L421.745 102.375L498.608 95.6731C499.66 95.5813 500.722 95.6967 501.724 96.0119C502.727 96.3271 503.648 96.8352 504.43 97.5037C505.211 98.1722 505.835 98.9864 506.262 99.8942C506.689 100.802 506.91 101.784 506.91 102.776V274.372C506.918 276.152 506.213 277.869 504.936 279.185C503.659 280.5 501.902 281.317 500.014 281.475L421.745 288.3ZM337.165 279.822L337.219 279.827L421.745 287.198L499.905 280.382C501.503 280.249 502.99 279.557 504.071 278.444C505.151 277.331 505.747 275.878 505.741 274.372V102.776C505.741 101.936 505.554 101.106 505.193 100.338C504.831 99.5693 504.303 98.8804 503.642 98.3147C502.981 97.7491 502.201 97.3191 501.353 97.0524C500.505 96.7857 499.607 96.688 498.716 96.7657L421.745 103.478L421.691 103.473L337.165 96.1023L259.005 102.918C257.407 103.051 255.92 103.743 254.839 104.856C253.759 105.969 253.163 107.422 253.169 108.928V280.524C253.169 281.364 253.356 282.194 253.717 282.962C254.079 283.731 254.607 284.42 255.268 284.985C255.929 285.551 256.709 285.981 257.557 286.248C258.405 286.514 259.303 286.612 260.194 286.534L337.165 279.822Z" fill="#492222"/>
<path d="M495.548 138.917C495.548 134.038 491.331 122.459 486.129 122.459C480.927 122.459 476.71 134.038 476.71 138.917C476.712 141.261 477.705 143.509 479.471 145.165C481.237 146.822 483.632 147.753 486.129 147.753C488.626 147.753 491.021 146.822 492.787 145.165C494.553 143.509 495.546 141.261 495.548 138.917Z" fill="#2B2752"/>
<path d="M486.129 158.495C486.101 158.495 486.073 158.485 486.053 158.466C486.033 158.447 486.021 158.421 486.021 158.394V137.755C486.022 137.728 486.033 137.703 486.053 137.684C486.073 137.665 486.101 137.655 486.129 137.655C486.158 137.655 486.185 137.665 486.205 137.684C486.225 137.703 486.237 137.728 486.237 137.755V158.394C486.237 158.407 486.234 158.421 486.229 158.433C486.223 158.445 486.215 158.456 486.205 158.466C486.195 158.475 486.183 158.483 486.17 158.488C486.157 158.493 486.143 158.495 486.129 158.495Z" fill="#3DCA86"/>
<path d="M486.129 141.611C486.114 141.611 486.099 141.608 486.085 141.602C486.071 141.596 486.058 141.587 486.048 141.576L480.631 135.712C480.612 135.692 480.603 135.666 480.605 135.639C480.607 135.612 480.621 135.587 480.642 135.57C480.664 135.552 480.692 135.544 480.72 135.545C480.749 135.547 480.775 135.56 480.794 135.58L486.211 141.444C486.224 141.458 486.233 141.476 486.236 141.496C486.239 141.515 486.236 141.534 486.227 141.552C486.219 141.57 486.205 141.585 486.188 141.595C486.17 141.606 486.15 141.611 486.129 141.611Z" fill="#3DCA86"/>
<path d="M486.129 144.995C486.108 144.995 486.087 144.989 486.069 144.978C486.052 144.967 486.038 144.951 486.03 144.933C486.022 144.914 486.019 144.894 486.024 144.875C486.028 144.855 486.038 144.837 486.053 144.823L489.131 141.933C489.141 141.924 489.153 141.917 489.166 141.912C489.179 141.906 489.193 141.904 489.207 141.904C489.221 141.904 489.235 141.906 489.248 141.912C489.261 141.917 489.273 141.924 489.283 141.933C489.293 141.943 489.301 141.954 489.307 141.966C489.312 141.979 489.315 141.992 489.315 142.005C489.315 142.018 489.312 142.031 489.307 142.044C489.301 142.056 489.293 142.067 489.283 142.076L486.205 144.966C486.195 144.975 486.183 144.983 486.17 144.988C486.157 144.993 486.143 144.995 486.129 144.995Z" fill="#3DCA86"/>
<path d="M475.928 158.361C475.928 157.382 476.342 156.444 477.079 155.751C477.817 155.059 478.817 154.67 479.86 154.67C480.903 154.67 481.903 155.059 482.64 155.751C483.378 156.444 483.792 157.382 483.792 158.361" fill="#8E5454"/>
<path d="M479.86 158.361C479.832 158.361 479.805 158.351 479.785 158.332C479.765 158.313 479.754 158.288 479.754 158.262V156.316C479.754 156.29 479.765 156.264 479.785 156.246C479.805 156.227 479.832 156.217 479.86 156.217C479.888 156.217 479.915 156.227 479.935 156.246C479.955 156.264 479.966 156.29 479.966 156.316V158.262C479.966 158.288 479.955 158.313 479.935 158.332C479.915 158.351 479.888 158.361 479.86 158.361Z" fill="#3DCA86"/>
<path d="M479.86 157.693C479.835 157.693 479.81 157.684 479.791 157.669L478.516 156.641C478.505 156.633 478.496 156.622 478.49 156.611C478.484 156.599 478.48 156.586 478.479 156.573C478.478 156.56 478.479 156.547 478.484 156.535C478.488 156.522 478.495 156.511 478.504 156.501C478.513 156.491 478.524 156.483 478.537 156.477C478.549 156.471 478.563 156.467 478.577 156.466C478.591 156.465 478.605 156.467 478.618 156.471C478.631 156.475 478.643 156.481 478.654 156.49L479.929 157.517C479.946 157.531 479.957 157.548 479.963 157.568C479.968 157.588 479.967 157.609 479.96 157.628C479.952 157.647 479.939 157.663 479.921 157.675C479.903 157.687 479.882 157.693 479.86 157.693Z" fill="#3DCA86"/>
<path d="M488.043 158.361C488.043 157.382 488.457 156.444 489.195 155.751C489.932 155.059 490.932 154.67 491.975 154.67C493.018 154.67 494.018 155.059 494.755 155.751C495.493 156.444 495.907 157.382 495.907 158.361" fill="#8E5454"/>
<path d="M491.975 158.361C491.947 158.361 491.92 158.351 491.9 158.332C491.88 158.313 491.869 158.288 491.869 158.262V156.316C491.869 156.29 491.88 156.264 491.9 156.246C491.92 156.227 491.947 156.217 491.975 156.217C492.003 156.217 492.03 156.227 492.05 156.246C492.07 156.264 492.081 156.29 492.081 156.316V158.262C492.081 158.288 492.07 158.313 492.05 158.332C492.03 158.351 492.003 158.361 491.975 158.361Z" fill="#3DCA86"/>
<path d="M491.975 157.693C491.949 157.693 491.925 157.684 491.906 157.669L490.63 156.641C490.609 156.624 490.596 156.6 490.594 156.573C490.592 156.547 490.601 156.521 490.619 156.501C490.638 156.481 490.664 156.469 490.692 156.467C490.72 156.465 490.747 156.473 490.769 156.49L492.044 157.517C492.061 157.531 492.072 157.548 492.078 157.568C492.083 157.588 492.082 157.609 492.075 157.628C492.067 157.647 492.053 157.663 492.036 157.675C492.018 157.687 491.997 157.693 491.975 157.693Z" fill="#3DCA86"/>
<path d="M371.663 124.942C374.246 121.471 377.376 111.267 373.676 108.84C369.976 106.414 360.846 112.683 358.263 116.154C357.022 117.822 356.539 119.885 356.917 121.887C357.296 123.89 358.507 125.67 360.284 126.835C362.06 128 364.257 128.455 366.391 128.1C368.525 127.745 370.421 126.609 371.663 124.942Z" fill="#8E5454"/>
<path d="M354.599 134.474C354.578 134.461 354.564 134.441 354.56 134.418C354.556 134.395 354.561 134.371 354.575 134.352L365.502 119.671C365.516 119.652 365.538 119.639 365.562 119.635C365.586 119.631 365.612 119.636 365.632 119.649C365.652 119.663 365.666 119.683 365.67 119.706C365.675 119.729 365.669 119.752 365.655 119.771L354.729 134.453C354.714 134.472 354.693 134.485 354.668 134.489C354.644 134.493 354.619 134.488 354.599 134.474Z" fill="#3DCA86"/>
<path d="M363.537 122.464C363.526 122.457 363.517 122.448 363.51 122.437C363.503 122.426 363.499 122.414 363.497 122.401L362.749 115.703C362.746 115.68 362.753 115.657 362.769 115.639C362.784 115.621 362.807 115.609 362.832 115.607C362.856 115.605 362.881 115.611 362.9 115.626C362.92 115.641 362.932 115.662 362.934 115.685L363.683 122.383C363.685 122.4 363.682 122.417 363.674 122.432C363.666 122.447 363.653 122.459 363.638 122.468C363.622 122.476 363.605 122.481 363.587 122.48C363.569 122.479 363.552 122.474 363.537 122.464Z" fill="#3DCA86"/>
<path d="M361.745 124.872C361.73 124.862 361.718 124.848 361.711 124.831C361.705 124.815 361.703 124.798 361.707 124.781C361.711 124.764 361.72 124.748 361.734 124.736C361.747 124.724 361.764 124.716 361.782 124.713L365.501 124.094C365.513 124.092 365.526 124.092 365.538 124.094C365.55 124.097 365.561 124.101 365.571 124.108C365.582 124.115 365.59 124.123 365.597 124.133C365.603 124.142 365.608 124.153 365.61 124.165C365.612 124.176 365.612 124.188 365.609 124.199C365.607 124.21 365.602 124.221 365.595 124.23C365.587 124.24 365.578 124.248 365.568 124.254C365.558 124.26 365.546 124.265 365.534 124.266L361.815 124.886C361.803 124.888 361.79 124.888 361.778 124.885C361.766 124.883 361.755 124.878 361.745 124.872Z" fill="#3DCA86"/>
<path d="M347.413 129.62C347.932 128.926 348.723 128.454 349.613 128.307C350.503 128.159 351.418 128.349 352.159 128.835C352.9 129.321 353.405 130.063 353.564 130.898C353.723 131.732 353.522 132.593 353.007 133.289" fill="#8E5454"/>
<path d="M350.21 131.455C350.19 131.442 350.176 131.421 350.172 131.399C350.168 131.376 350.173 131.353 350.187 131.334L351.217 129.95C351.231 129.932 351.252 129.919 351.276 129.915C351.3 129.911 351.325 129.916 351.345 129.93C351.365 129.943 351.379 129.963 351.383 129.985C351.387 130.008 351.382 130.031 351.368 130.05L350.338 131.433C350.324 131.452 350.303 131.465 350.279 131.469C350.255 131.473 350.23 131.468 350.21 131.455Z" fill="#3DCA86"/>
<path d="M350.564 130.979C350.546 130.967 350.533 130.95 350.527 130.93L350.164 129.604C350.161 129.593 350.16 129.582 350.162 129.57C350.164 129.559 350.168 129.548 350.174 129.538C350.18 129.528 350.188 129.52 350.198 129.513C350.208 129.506 350.219 129.501 350.23 129.498C350.242 129.496 350.254 129.495 350.266 129.497C350.278 129.498 350.29 129.502 350.3 129.508C350.311 129.514 350.32 129.521 350.327 129.53C350.335 129.54 350.34 129.55 350.343 129.561L350.706 130.887C350.711 130.904 350.71 130.922 350.703 130.938C350.696 130.955 350.685 130.969 350.669 130.979C350.654 130.989 350.635 130.995 350.616 130.995C350.598 130.995 350.579 130.989 350.564 130.979Z" fill="#3DCA86"/>
<path d="M356.031 135.272C356.287 134.926 356.613 134.631 356.991 134.404C357.369 134.176 357.791 134.021 358.232 133.947C358.674 133.873 359.127 133.882 359.565 133.972C360.003 134.063 360.418 134.233 360.786 134.475C361.154 134.716 361.468 135.023 361.709 135.378C361.95 135.733 362.114 136.129 362.192 136.544C362.27 136.959 362.26 137.384 362.163 137.795C362.065 138.206 361.883 138.596 361.625 138.94" fill="#8E5454"/>
<path d="M358.827 137.106C358.807 137.093 358.794 137.073 358.79 137.05C358.785 137.028 358.791 137.004 358.805 136.986L359.835 135.602C359.849 135.583 359.87 135.57 359.894 135.566C359.918 135.562 359.943 135.567 359.963 135.58C359.983 135.594 359.997 135.614 360.001 135.636C360.005 135.659 360 135.682 359.986 135.701L358.956 137.085C358.942 137.103 358.92 137.116 358.896 137.12C358.872 137.124 358.848 137.119 358.827 137.106Z" fill="#3DCA86"/>
<path d="M359.181 136.631C359.163 136.619 359.15 136.601 359.145 136.581L358.782 135.255C358.776 135.233 358.779 135.21 358.792 135.19C358.804 135.17 358.824 135.156 358.848 135.151C358.872 135.145 358.897 135.148 358.918 135.16C358.939 135.171 358.954 135.19 358.96 135.212L359.323 136.538C359.328 136.555 359.327 136.573 359.321 136.59C359.314 136.606 359.302 136.621 359.287 136.631C359.271 136.641 359.253 136.646 359.234 136.646C359.215 136.646 359.197 136.641 359.181 136.631Z" fill="#3DCA86"/>
<path d="M424.663 200.655C426.741 202.447 428.805 204.251 430.856 206.068C430.33 206.096 429.784 206.118 429.222 206.134C428.43 206.159 427.606 206.17 426.741 206.17C417.25 206.17 412.434 204.707 407.78 203.292C403.361 201.95 399.187 200.682 390.618 200.682C382.045 200.682 377.871 201.95 373.455 203.292C368.798 204.707 363.982 206.17 354.491 206.17C344.998 206.17 340.184 204.707 335.528 203.292C331.211 201.98 327.127 200.74 318.949 200.685C318.756 200.682 318.564 200.682 318.365 200.682V195.195C318.561 195.195 318.756 195.195 318.949 195.198C328.057 195.255 332.769 196.688 337.328 198.07C341.748 199.415 345.921 200.682 354.491 200.682C363.061 200.682 367.235 199.415 371.654 198.07C376.31 196.657 381.124 195.195 390.618 195.195C400.108 195.195 404.922 196.657 409.578 198.07C413.27 199.193 416.792 200.263 422.848 200.584C423.429 200.617 424.031 200.639 424.663 200.655Z" fill="#5633A2"/>
<path d="M498.996 200.682V206.17C489.503 206.17 484.689 204.707 480.033 203.292C475.614 201.95 471.44 200.682 462.87 200.682C454.297 200.682 450.124 201.95 445.704 203.292C445.465 203.366 445.222 203.437 444.979 203.511C444.564 203.637 444.143 203.764 443.717 203.887C442.103 202.403 440.484 200.931 438.859 199.472C439.312 199.368 439.75 199.258 440.183 199.146C441.472 198.811 442.679 198.444 443.907 198.07C448.563 196.657 453.377 195.195 462.87 195.195C472.363 195.195 477.177 196.657 481.834 198.07C486.253 199.415 490.427 200.682 498.996 200.682Z" fill="#5633A2"/>
<path d="M369.827 158.482C353.465 147.296 336.249 136.689 318.663 126.957L317.78 126.469V159.475H371.28L369.827 158.482ZM318.949 158.378V128.392C335.68 137.682 352.062 147.763 367.685 158.378H318.949ZM452.634 226.314C445.558 219.408 438.299 212.659 430.856 206.068C428.804 204.249 426.74 202.445 424.663 200.655C411.986 189.724 398.893 179.328 385.383 169.468L385.225 169.352H317.78V227.244H453.587L452.634 226.314ZM318.949 226.146V170.45H384.824C397.851 179.962 410.526 190.007 422.848 200.584C424.987 202.419 427.112 204.269 429.222 206.134C436.6 212.642 443.804 219.313 450.837 226.146H318.949ZM452.634 226.314C445.558 219.408 438.299 212.659 430.856 206.068C428.804 204.249 426.74 202.445 424.663 200.655C411.986 189.724 398.893 179.328 385.383 169.468L385.225 169.352H317.78V227.244H453.587L452.634 226.314ZM318.949 226.146V170.45H384.824C397.851 179.962 410.526 190.007 422.848 200.584C424.987 202.419 427.112 204.269 429.222 206.134C436.6 212.642 443.804 219.313 450.837 226.146H318.949ZM369.827 158.482C353.465 147.296 336.249 136.689 318.663 126.957L317.78 126.469V159.475H371.28L369.827 158.482ZM318.949 158.378V128.392C335.68 137.682 352.062 147.763 367.685 158.378H318.949ZM369.827 158.482C353.465 147.296 336.249 136.689 318.663 126.957L317.78 126.469V159.475H371.28L369.827 158.482ZM318.949 158.378V128.392C335.68 137.682 352.062 147.763 367.685 158.378H318.949ZM452.634 226.314C445.558 219.408 438.299 212.659 430.856 206.068C428.804 204.249 426.74 202.445 424.663 200.655C411.986 189.724 398.893 179.328 385.383 169.468L385.225 169.352H317.78V227.244H453.587L452.634 226.314ZM318.949 226.146V170.45H384.824C397.851 179.962 410.526 190.007 422.848 200.584C424.987 202.419 427.112 204.269 429.222 206.134C436.6 212.642 443.804 219.313 450.837 226.146H318.949ZM259.914 237.121V238.219H306.089V254.132H259.914V255.229H307.258V237.121H259.914ZM317.78 265.106V276.227L318.949 276.125V266.204H498.996V265.106H317.78ZM498.996 238.219V237.121H317.78V255.229H498.996V254.132H318.949V238.219H498.996ZM389.814 158.378C367.384 142.136 343.697 127.486 318.949 114.548V103.436L317.78 103.537V114.735L318.68 115.664C343.327 128.567 366.918 143.173 389.258 159.36L389.416 159.475H498.996V158.378H389.814ZM306.089 158.378H259.914V159.475H307.258V104.454L306.089 104.555V158.378ZM498.996 169.352H402.662L403.922 170.324C415.783 179.485 427.429 189.201 438.859 199.472C440.484 200.932 442.103 202.404 443.717 203.887C451.749 211.254 459.624 218.861 467.342 226.709L468.306 227.244H498.996V226.146H468.38C460.745 218.376 452.945 210.831 444.979 203.511C443.386 202.046 441.788 200.591 440.183 199.146C429 189.074 417.579 179.509 405.918 170.45H498.996V169.352ZM259.914 265.106V266.204H306.089V277.244L307.258 277.143V265.106H259.914ZM259.914 169.352V170.45H306.089V226.146H259.914V227.244H307.258V169.352H259.914ZM369.827 158.482C353.465 147.296 336.249 136.689 318.663 126.957L317.78 126.469V159.475H371.28L369.827 158.482ZM318.949 158.378V128.392C335.68 137.682 352.062 147.763 367.685 158.378H318.949ZM452.634 226.314C445.558 219.408 438.299 212.659 430.856 206.068C428.804 204.249 426.74 202.445 424.663 200.655C411.986 189.724 398.893 179.328 385.383 169.468L385.225 169.352H317.78V227.244H453.587L452.634 226.314ZM318.949 226.146V170.45H384.824C397.851 179.962 410.526 190.007 422.848 200.584C424.987 202.419 427.112 204.269 429.222 206.134C436.6 212.642 443.804 219.313 450.837 226.146H318.949ZM369.827 158.482C353.465 147.296 336.249 136.689 318.663 126.957L317.78 126.469V159.475H371.28L369.827 158.482ZM318.949 158.378V128.392C335.68 137.682 352.062 147.763 367.685 158.378H318.949ZM452.634 226.314C445.558 219.408 438.299 212.659 430.856 206.068C428.804 204.249 426.74 202.445 424.663 200.655C411.986 189.724 398.893 179.328 385.383 169.468L385.225 169.352H317.78V227.244H453.587L452.634 226.314ZM318.949 226.146V170.45H384.824C397.851 179.962 410.526 190.007 422.848 200.584C424.987 202.419 427.112 204.269 429.222 206.134C436.6 212.642 443.804 219.313 450.837 226.146H318.949Z" fill="#2B2752"/>
<path d="M400.406 195.802C400.406 190.97 404.579 179.504 409.726 179.504C414.874 179.504 419.047 190.97 419.047 195.802C419.047 198.123 418.065 200.348 416.317 201.989C414.569 203.63 412.198 204.552 409.726 204.552C407.254 204.552 404.884 203.63 403.136 201.989C401.388 200.348 400.406 198.123 400.406 195.802Z" fill="#8E5454"/>
<path d="M409.726 217.088C409.716 217.088 409.706 217.086 409.697 217.083C409.687 217.079 409.679 217.074 409.672 217.067C409.665 217.06 409.659 217.052 409.655 217.044C409.651 217.035 409.649 217.026 409.649 217.016V186.852C409.649 186.833 409.658 186.814 409.672 186.801C409.686 186.787 409.706 186.78 409.726 186.78C409.746 186.78 409.766 186.787 409.78 186.801C409.795 186.814 409.803 186.833 409.803 186.852V217.016C409.803 217.026 409.801 217.035 409.797 217.044C409.793 217.052 409.787 217.06 409.78 217.067C409.773 217.074 409.765 217.079 409.755 217.083C409.746 217.086 409.736 217.088 409.726 217.088Z" fill="#2B2752"/>
<path d="M409.726 192.675C409.716 192.675 409.706 192.673 409.697 192.67C409.688 192.666 409.679 192.661 409.672 192.654L405.983 189.191C405.976 189.185 405.97 189.177 405.966 189.168C405.962 189.159 405.96 189.15 405.96 189.14C405.96 189.131 405.962 189.122 405.966 189.113C405.97 189.104 405.976 189.096 405.983 189.09C405.99 189.083 405.998 189.078 406.008 189.074C406.017 189.07 406.027 189.068 406.037 189.068C406.047 189.068 406.057 189.07 406.066 189.074C406.076 189.078 406.084 189.083 406.091 189.09L409.78 192.552C409.791 192.563 409.798 192.575 409.801 192.589C409.804 192.603 409.803 192.618 409.797 192.631C409.791 192.644 409.781 192.655 409.769 192.663C409.756 192.671 409.741 192.675 409.726 192.675Z" fill="#2B2752"/>
<path d="M409.726 198.67C409.711 198.67 409.696 198.666 409.683 198.658C409.671 198.65 409.661 198.639 409.655 198.626C409.649 198.613 409.648 198.598 409.651 198.584C409.654 198.57 409.661 198.558 409.672 198.547L415.85 192.748C415.857 192.741 415.865 192.736 415.875 192.733C415.884 192.729 415.894 192.727 415.904 192.727C415.914 192.727 415.924 192.729 415.933 192.733C415.943 192.736 415.951 192.741 415.958 192.748C415.965 192.755 415.971 192.763 415.975 192.771C415.979 192.78 415.981 192.79 415.981 192.799C415.981 192.808 415.979 192.818 415.975 192.827C415.971 192.835 415.965 192.843 415.958 192.85L409.78 198.649C409.773 198.656 409.765 198.661 409.755 198.665C409.746 198.668 409.736 198.67 409.726 198.67Z" fill="#2B2752"/>
<path d="M452.667 171.109C452.667 166.277 456.839 154.811 461.987 154.811C467.135 154.811 471.308 166.277 471.308 171.109C471.306 173.429 470.323 175.653 468.576 177.292C466.828 178.932 464.458 179.853 461.987 179.853C459.516 179.853 457.146 178.932 455.398 177.292C453.651 175.653 452.668 173.429 452.667 171.109Z" fill="#5633A2"/>
<path d="M461.987 192.395C461.977 192.395 461.967 192.393 461.957 192.39C461.948 192.386 461.94 192.381 461.933 192.374C461.925 192.367 461.92 192.359 461.916 192.351C461.912 192.342 461.91 192.333 461.91 192.323V162.159C461.91 162.14 461.918 162.121 461.933 162.108C461.947 162.094 461.966 162.087 461.987 162.087C462.007 162.087 462.027 162.094 462.041 162.108C462.055 162.121 462.063 162.14 462.063 162.159V192.323C462.063 192.333 462.061 192.342 462.058 192.351C462.054 192.359 462.048 192.367 462.041 192.374C462.034 192.381 462.025 192.386 462.016 192.39C462.007 192.393 461.997 192.395 461.987 192.395Z" fill="#2B2752"/>
<path d="M461.987 167.982C461.977 167.982 461.967 167.98 461.958 167.977C461.948 167.973 461.94 167.968 461.933 167.961L458.244 164.498C458.229 164.485 458.221 164.466 458.221 164.447C458.221 164.428 458.229 164.41 458.244 164.397C458.258 164.383 458.278 164.375 458.298 164.375C458.318 164.375 458.338 164.383 458.352 164.397L462.041 167.859C462.052 167.869 462.059 167.882 462.062 167.896C462.065 167.91 462.064 167.925 462.058 167.938C462.052 167.951 462.042 167.962 462.029 167.97C462.017 167.978 462.002 167.982 461.987 167.982Z" fill="#2B2752"/>
<path d="M461.987 173.977C461.972 173.977 461.957 173.973 461.944 173.965C461.932 173.957 461.922 173.946 461.916 173.933C461.91 173.92 461.909 173.905 461.912 173.891C461.915 173.877 461.922 173.864 461.933 173.854L468.111 168.055C468.125 168.042 468.144 168.034 468.165 168.034C468.185 168.034 468.204 168.042 468.219 168.055C468.233 168.069 468.241 168.087 468.241 168.106C468.241 168.125 468.233 168.143 468.219 168.157L462.041 173.956C462.034 173.963 462.025 173.968 462.016 173.972C462.007 173.975 461.997 173.977 461.987 173.977Z" fill="#2B2752"/>
<path d="M338.235 173.579C338.235 168.747 342.408 157.28 347.555 157.28C352.703 157.28 356.876 168.747 356.876 173.579C356.876 175.899 355.894 178.124 354.146 179.765C352.398 181.406 350.027 182.328 347.555 182.328C345.083 182.328 342.713 181.406 340.965 179.765C339.217 178.124 338.235 175.899 338.235 173.579Z" fill="#5633A2"/>
<path d="M347.555 194.864C347.545 194.864 347.535 194.863 347.526 194.859C347.517 194.855 347.508 194.85 347.501 194.843C347.494 194.837 347.488 194.829 347.484 194.82C347.48 194.811 347.479 194.802 347.479 194.792V164.628C347.479 164.609 347.487 164.591 347.501 164.577C347.515 164.564 347.535 164.556 347.555 164.556C347.575 164.556 347.595 164.564 347.609 164.577C347.624 164.591 347.632 164.609 347.632 164.628V194.792C347.632 194.802 347.63 194.811 347.626 194.82C347.622 194.829 347.616 194.837 347.609 194.843C347.602 194.85 347.594 194.855 347.584 194.859C347.575 194.863 347.565 194.864 347.555 194.864Z" fill="#2B2752"/>
<path d="M347.555 170.452C347.545 170.452 347.535 170.45 347.526 170.446C347.517 170.442 347.508 170.437 347.501 170.43L343.812 166.968C343.805 166.961 343.799 166.953 343.795 166.944C343.792 166.935 343.79 166.926 343.79 166.917C343.79 166.907 343.792 166.898 343.795 166.889C343.799 166.88 343.805 166.872 343.812 166.866C343.819 166.859 343.828 166.854 343.837 166.85C343.846 166.847 343.856 166.845 343.866 166.845C343.876 166.845 343.886 166.847 343.896 166.85C343.905 166.854 343.913 166.859 343.92 166.866L347.609 170.329C347.62 170.339 347.627 170.352 347.63 170.366C347.633 170.38 347.632 170.394 347.626 170.407C347.62 170.42 347.61 170.432 347.598 170.439C347.585 170.447 347.57 170.452 347.555 170.452Z" fill="#2B2752"/>
<path d="M347.555 176.447C347.54 176.447 347.525 176.442 347.513 176.434C347.5 176.426 347.49 176.415 347.484 176.402C347.479 176.389 347.477 176.375 347.48 176.361C347.483 176.347 347.49 176.334 347.501 176.324L353.679 170.524C353.693 170.511 353.713 170.503 353.733 170.503C353.753 170.503 353.773 170.511 353.787 170.524C353.802 170.538 353.81 170.556 353.81 170.575C353.81 170.594 353.802 170.613 353.787 170.626L347.609 176.425C347.602 176.432 347.594 176.437 347.584 176.441C347.575 176.445 347.565 176.447 347.555 176.447Z" fill="#2B2752"/>
<path d="M424.227 149.473C418.934 149.473 413.759 147.999 409.357 145.239C404.955 142.478 401.525 138.554 399.499 133.963C397.473 129.372 396.943 124.32 397.976 119.446C399.009 114.572 401.558 110.096 405.301 106.582C409.044 103.068 413.813 100.675 419.006 99.7056C424.198 98.7361 429.579 99.2337 434.47 101.135C439.361 103.037 443.541 106.257 446.482 110.389C449.423 114.521 450.993 119.379 450.993 124.348C450.985 131.009 448.163 137.395 443.145 142.106C438.127 146.816 431.324 149.465 424.227 149.473ZM424.227 99.56C419.005 99.56 413.899 101.014 409.557 103.738C405.214 106.461 401.829 110.333 399.831 114.862C397.832 119.391 397.309 124.375 398.328 129.184C399.347 133.992 401.862 138.409 405.555 141.876C409.248 145.342 413.953 147.703 419.076 148.659C424.198 149.616 429.508 149.125 434.333 147.249C439.158 145.373 443.282 142.196 446.184 138.119C449.085 134.043 450.634 129.25 450.634 124.348C450.626 117.776 447.841 111.475 442.891 106.828C437.94 102.181 431.228 99.5675 424.227 99.56Z" fill="#3DCA86"/>
<path d="M424.227 122.493C424.179 122.493 424.134 122.475 424.1 122.444C424.066 122.412 424.047 122.369 424.047 122.324V99.3914C424.047 99.3467 424.066 99.3038 424.1 99.2722C424.134 99.2406 424.179 99.2228 424.227 99.2228C424.275 99.2228 424.32 99.2406 424.354 99.2722C424.388 99.3038 424.407 99.3467 424.407 99.3914V122.324C424.407 122.369 424.388 122.412 424.354 122.444C424.32 122.475 424.275 122.493 424.227 122.493Z" fill="#3DCA86"/>
<path d="M450.813 124.517H426.383C426.335 124.517 426.289 124.499 426.256 124.467C426.222 124.435 426.203 124.393 426.203 124.348C426.203 124.303 426.222 124.26 426.256 124.229C426.289 124.197 426.335 124.179 426.383 124.179H450.813C450.861 124.179 450.907 124.197 450.94 124.229C450.974 124.26 450.993 124.303 450.993 124.348C450.993 124.393 450.974 124.435 450.94 124.467C450.907 124.499 450.861 124.517 450.813 124.517Z" fill="#3DCA86"/>
<path d="M422.071 124.517H397.652C397.605 124.517 397.559 124.499 397.525 124.467C397.492 124.435 397.473 124.393 397.473 124.348C397.473 124.303 397.492 124.26 397.525 124.229C397.559 124.197 397.605 124.179 397.652 124.179H422.071C422.119 124.179 422.165 124.197 422.198 124.229C422.232 124.26 422.251 124.303 422.251 124.348C422.251 124.393 422.232 124.435 422.198 124.467C422.165 124.499 422.119 124.517 422.071 124.517Z" fill="#3DCA86"/>
<path d="M424.227 149.473C424.179 149.473 424.134 149.455 424.1 149.424C424.066 149.392 424.047 149.349 424.047 149.304V126.371C424.047 126.327 424.066 126.284 424.1 126.252C424.134 126.221 424.179 126.203 424.227 126.203C424.275 126.203 424.32 126.221 424.354 126.252C424.388 126.284 424.407 126.327 424.407 126.371V149.304C424.407 149.349 424.388 149.392 424.354 149.424C424.32 149.455 424.275 149.473 424.227 149.473Z" fill="#3DCA86"/>
<path d="M425.811 123.146C425.775 123.146 425.741 123.136 425.711 123.118C425.682 123.099 425.659 123.073 425.645 123.042C425.631 123.011 425.628 122.977 425.635 122.945C425.642 122.912 425.659 122.882 425.684 122.858L442.883 106.714C442.917 106.682 442.962 106.665 443.01 106.665C443.057 106.665 443.103 106.683 443.137 106.714C443.17 106.746 443.189 106.788 443.189 106.833C443.189 106.878 443.17 106.92 443.137 106.952L425.938 123.097C425.921 123.113 425.902 123.125 425.88 123.133C425.858 123.142 425.835 123.146 425.811 123.146Z" fill="#3DCA86"/>
<path d="M422.643 123.146C422.62 123.146 422.596 123.142 422.575 123.133C422.553 123.125 422.533 123.113 422.516 123.097L405.317 106.952C405.284 106.92 405.265 106.878 405.265 106.833C405.265 106.788 405.284 106.746 405.318 106.714C405.351 106.683 405.397 106.665 405.444 106.665C405.492 106.665 405.538 106.682 405.571 106.714L422.77 122.858C422.795 122.882 422.813 122.912 422.82 122.945C422.826 122.977 422.823 123.011 422.809 123.042C422.796 123.073 422.773 123.099 422.743 123.118C422.714 123.136 422.679 123.146 422.643 123.146Z" fill="#3DCA86"/>
<path d="M443.01 142.031C442.986 142.032 442.963 142.027 442.941 142.019C442.919 142.01 442.9 141.998 442.883 141.982L425.684 125.837C425.65 125.806 425.632 125.763 425.632 125.718C425.632 125.674 425.651 125.631 425.684 125.599C425.718 125.568 425.764 125.55 425.811 125.55C425.859 125.55 425.904 125.567 425.938 125.599L443.137 141.744C443.162 141.767 443.179 141.797 443.186 141.83C443.193 141.863 443.19 141.897 443.176 141.927C443.162 141.958 443.139 141.985 443.11 142.003C443.08 142.022 443.046 142.031 443.01 142.031Z" fill="#3DCA86"/>
<path d="M405.444 142.032C405.409 142.032 405.374 142.022 405.344 142.003C405.315 141.985 405.292 141.958 405.278 141.927C405.265 141.897 405.261 141.863 405.268 141.83C405.275 141.797 405.292 141.767 405.317 141.744L422.516 125.599C422.55 125.567 422.596 125.55 422.643 125.55C422.691 125.55 422.737 125.567 422.77 125.599C422.804 125.631 422.823 125.673 422.823 125.718C422.823 125.763 422.804 125.806 422.77 125.837L405.571 141.982C405.555 141.998 405.535 142.01 405.513 142.019C405.491 142.027 405.468 142.032 405.444 142.032Z" fill="#3DCA86"/>
<path d="M424.227 141.632C420.586 141.632 417.026 140.618 413.998 138.719C410.97 136.82 408.61 134.12 407.216 130.962C405.822 127.804 405.458 124.329 406.168 120.976C406.879 117.623 408.632 114.543 411.207 112.126C413.783 109.709 417.063 108.063 420.635 107.396C424.207 106.729 427.909 107.071 431.273 108.38C434.638 109.688 437.514 111.903 439.537 114.745C441.56 117.588 442.64 120.929 442.64 124.348C442.634 128.93 440.693 133.324 437.241 136.564C433.789 139.804 429.109 141.627 424.227 141.632ZM424.227 107.401C420.657 107.401 417.166 108.395 414.197 110.257C411.228 112.119 408.914 114.766 407.548 117.863C406.182 120.959 405.824 124.367 406.521 127.654C407.217 130.941 408.937 133.961 411.461 136.331C413.986 138.701 417.203 140.315 420.705 140.969C424.207 141.623 427.837 141.287 431.136 140.005C434.435 138.722 437.254 136.55 439.238 133.763C441.222 130.976 442.281 127.7 442.281 124.348C442.275 119.855 440.372 115.547 436.987 112.37C433.602 109.193 429.014 107.406 424.227 107.401Z" fill="#3DCA86"/>
<path d="M424.227 126.371C425.418 126.371 426.383 125.465 426.383 124.348C426.383 123.23 425.418 122.324 424.227 122.324C423.037 122.324 422.072 123.23 422.072 124.348C422.072 125.465 423.037 126.371 424.227 126.371Z" fill="#2B2752"/>
<path d="M415.881 158.527L413.988 158.579L423.231 123.556L424.949 124.048L415.881 158.527Z" fill="#2B2752"/>
<path d="M432.573 158.527L434.466 158.579L425.223 123.556L423.505 124.048L432.573 158.527Z" fill="#2B2752"/>
<path d="M427.101 104.45H421.173V107.485H427.101V104.45Z" fill="#3DCA86"/>
<path d="M423.868 105.125H421.533V107.485H423.868V105.125Z" fill="#1B1B1F"/>
<path d="M426.742 105.125H424.407V107.485H426.742V105.125Z" fill="#1B1B1F"/>
<path d="M424.137 110.774C423.232 110.773 422.365 110.435 421.725 109.834C421.085 109.233 420.725 108.419 420.724 107.57V107.485C420.724 107.284 420.81 107.091 420.961 106.949C421.113 106.807 421.318 106.727 421.532 106.727H426.742C426.956 106.727 427.162 106.807 427.313 106.949C427.465 107.091 427.55 107.284 427.55 107.485V107.57C427.549 108.419 427.189 109.233 426.55 109.834C425.91 110.435 425.042 110.773 424.137 110.774Z" fill="#3DCA86"/>
<path d="M426.879 105.209H421.395C421.319 105.209 421.244 105.191 421.177 105.156C421.11 105.121 421.054 105.07 421.013 105.009C420.973 104.948 420.95 104.878 420.947 104.806C420.943 104.735 420.959 104.663 420.994 104.599L422.072 102.575C422.109 102.505 422.166 102.446 422.237 102.405C422.308 102.364 422.39 102.342 422.473 102.342H425.802C425.885 102.342 425.967 102.364 426.038 102.405C426.109 102.446 426.166 102.505 426.203 102.575L427.281 104.599C427.315 104.663 427.331 104.735 427.328 104.806C427.325 104.878 427.302 104.948 427.261 105.009C427.221 105.07 427.165 105.121 427.098 105.156C427.031 105.191 426.956 105.209 426.879 105.209Z" fill="#5633A2"/>
<path d="M443.089 111.195H437.161V114.23H443.089V111.195Z" fill="#3DCA86"/>
<path d="M439.856 111.87H437.521V114.23H439.856V111.87Z" fill="#1B1B1F"/>
<path d="M442.73 111.87H440.395V114.23H442.73V111.87Z" fill="#1B1B1F"/>
<path d="M440.125 117.519C439.22 117.518 438.353 117.18 437.713 116.579C437.073 115.978 436.713 115.164 436.712 114.315V114.23C436.712 114.029 436.797 113.836 436.949 113.694C437.1 113.552 437.306 113.472 437.52 113.472H442.73C442.944 113.472 443.15 113.552 443.301 113.694C443.453 113.836 443.538 114.029 443.538 114.23V114.315C443.537 115.164 443.177 115.978 442.537 116.579C441.897 117.18 441.03 117.518 440.125 117.519Z" fill="#3DCA86"/>
<path d="M438.461 109.256C438.411 109.256 438.362 109.269 438.319 109.294C438.277 109.318 438.242 109.354 438.22 109.396L437.142 111.419C437.122 111.458 437.112 111.501 437.114 111.544C437.116 111.587 437.13 111.629 437.154 111.665C437.178 111.702 437.212 111.732 437.252 111.753C437.292 111.774 437.337 111.785 437.383 111.785H442.867C442.913 111.785 442.958 111.774 442.998 111.753C443.038 111.732 443.072 111.702 443.096 111.665C443.121 111.629 443.134 111.587 443.136 111.544C443.138 111.501 443.129 111.458 443.108 111.419L442.03 109.396C442.008 109.354 441.974 109.318 441.931 109.294C441.889 109.269 441.839 109.256 441.789 109.256H438.461Z" fill="#5633A2"/>
<path d="M449.376 126.371H443.448V129.407H449.376V126.371Z" fill="#3DCA86"/>
<path d="M446.143 127.046H443.808V129.407H446.143V127.046Z" fill="#1B1B1F"/>
<path d="M449.017 127.046H446.682V129.407H449.017V127.046Z" fill="#1B1B1F"/>
<path d="M446.412 132.695C445.507 132.694 444.64 132.356 444 131.755C443.36 131.155 443 130.34 442.999 129.491V129.407C442.999 129.205 443.085 129.013 443.236 128.87C443.388 128.728 443.593 128.648 443.807 128.648H449.017C449.231 128.648 449.437 128.728 449.588 128.87C449.74 129.013 449.825 129.205 449.825 129.407V129.491C449.824 130.34 449.464 131.155 448.824 131.755C448.185 132.356 447.317 132.694 446.412 132.695Z" fill="#3DCA86"/>
<path d="M449.154 127.13H443.67C443.594 127.13 443.518 127.112 443.452 127.077C443.385 127.042 443.328 126.991 443.288 126.93C443.248 126.869 443.225 126.799 443.222 126.728C443.218 126.656 443.234 126.584 443.269 126.52L444.346 124.497C444.383 124.426 444.441 124.367 444.512 124.326C444.583 124.285 444.665 124.263 444.748 124.264H448.076C448.16 124.263 448.242 124.285 448.313 124.326C448.384 124.367 448.441 124.426 448.478 124.497L449.556 126.52C449.59 126.584 449.606 126.656 449.603 126.728C449.599 126.799 449.577 126.869 449.536 126.93C449.496 126.991 449.44 127.042 449.373 127.077C449.306 127.112 449.231 127.13 449.154 127.13Z" fill="#5633A2"/>
<path d="M442.73 140.536H436.802V143.571H442.73V140.536Z" fill="#3DCA86"/>
<path d="M439.496 141.21H437.161V143.571H439.496V141.21Z" fill="#1B1B1F"/>
<path d="M442.37 141.21H440.035V143.571H442.37V141.21Z" fill="#1B1B1F"/>
<path d="M439.766 146.859C438.861 146.858 437.993 146.52 437.353 145.92C436.713 145.319 436.354 144.505 436.353 143.655V143.571C436.353 143.37 436.438 143.177 436.59 143.035C436.741 142.893 436.947 142.813 437.161 142.812H442.37C442.585 142.813 442.79 142.893 442.942 143.035C443.093 143.177 443.178 143.37 443.179 143.571V143.655C443.178 144.505 442.818 145.319 442.178 145.92C441.538 146.52 440.671 146.858 439.766 146.859Z" fill="#3DCA86"/>
<path d="M442.508 141.295H437.024C436.947 141.295 436.872 141.276 436.805 141.241C436.738 141.206 436.682 141.156 436.642 141.095C436.602 141.034 436.579 140.964 436.575 140.892C436.572 140.82 436.588 140.749 436.622 140.685L437.7 138.661C437.737 138.591 437.794 138.532 437.865 138.491C437.936 138.449 438.018 138.428 438.102 138.428H441.43C441.513 138.428 441.595 138.449 441.666 138.491C441.737 138.532 441.795 138.591 441.832 138.661L442.909 140.685C442.944 140.749 442.96 140.82 442.956 140.892C442.953 140.964 442.93 141.034 442.89 141.095C442.85 141.156 442.793 141.206 442.726 141.241C442.66 141.276 442.584 141.295 442.508 141.295Z" fill="#5633A2"/>
<path d="M405.365 114.23H411.293V111.195H405.365V114.23Z" fill="#3DCA86"/>
<path d="M408.599 114.23H410.934V111.87H408.599V114.23Z" fill="#1B1B1F"/>
<path d="M405.725 114.23H408.06V111.87H405.725V114.23Z" fill="#1B1B1F"/>
<path d="M408.329 117.519C407.424 117.518 406.557 117.18 405.917 116.579C405.277 115.978 404.917 115.164 404.916 114.315V114.23C404.916 114.029 405.002 113.836 405.153 113.694C405.305 113.552 405.51 113.472 405.724 113.472H410.934C411.148 113.472 411.354 113.552 411.505 113.694C411.657 113.836 411.742 114.029 411.742 114.23V114.315C411.741 115.164 411.381 115.978 410.741 116.579C410.102 117.18 409.234 117.518 408.329 117.519Z" fill="#3DCA86"/>
<path d="M411.071 111.954H405.587C405.511 111.954 405.435 111.936 405.369 111.901C405.302 111.866 405.246 111.815 405.205 111.754C405.165 111.693 405.142 111.623 405.139 111.551C405.135 111.48 405.151 111.408 405.186 111.344L406.263 109.32C406.301 109.25 406.358 109.191 406.429 109.15C406.5 109.109 406.582 109.087 406.665 109.087H409.993C410.077 109.087 410.159 109.109 410.23 109.15C410.301 109.191 410.358 109.25 410.395 109.32L411.473 111.344C411.507 111.408 411.523 111.48 411.52 111.551C411.516 111.623 411.493 111.693 411.453 111.754C411.413 111.815 411.357 111.866 411.29 111.901C411.223 111.936 411.148 111.954 411.071 111.954Z" fill="#5633A2"/>
<path d="M399.078 129.407H405.006V126.371H399.078V129.407Z" fill="#3DCA86"/>
<path d="M402.312 129.407H404.647V127.046H402.312V129.407Z" fill="#1B1B1F"/>
<path d="M399.437 129.407H401.772V127.046H399.437V129.407Z" fill="#1B1B1F"/>
<path d="M402.042 132.695C401.137 132.694 400.27 132.356 399.63 131.755C398.99 131.155 398.63 130.34 398.629 129.491V129.407C398.629 129.205 398.714 129.013 398.866 128.87C399.017 128.728 399.223 128.648 399.437 128.648H404.647C404.861 128.648 405.067 128.728 405.218 128.87C405.37 129.013 405.455 129.205 405.455 129.407V129.491C405.454 130.34 405.094 131.155 404.454 131.755C403.814 132.356 402.947 132.694 402.042 132.695Z" fill="#3DCA86"/>
<path d="M404.784 127.13H399.3C399.224 127.13 399.148 127.112 399.081 127.077C399.015 127.042 398.958 126.991 398.918 126.93C398.878 126.869 398.855 126.799 398.852 126.728C398.848 126.656 398.864 126.584 398.898 126.52L399.976 124.497C400.013 124.426 400.071 124.367 400.142 124.326C400.213 124.285 400.295 124.263 400.378 124.264H403.706C403.79 124.263 403.872 124.285 403.943 124.326C404.014 124.367 404.071 124.426 404.108 124.497L405.186 126.52C405.22 126.584 405.236 126.656 405.233 126.728C405.229 126.799 405.206 126.869 405.166 126.93C405.126 126.991 405.07 127.042 405.003 127.077C404.936 127.112 404.861 127.13 404.784 127.13Z" fill="#5633A2"/>
<path d="M405.725 143.571H411.653V140.536H405.725V143.571Z" fill="#3DCA86"/>
<path d="M408.958 143.571H411.293V141.21H408.958V143.571Z" fill="#1B1B1F"/>
<path d="M406.084 143.571H408.419V141.21H406.084V143.571Z" fill="#1B1B1F"/>
<path d="M408.688 146.859C407.784 146.858 406.916 146.52 406.276 145.92C405.636 145.319 405.276 144.505 405.275 143.655V143.571C405.276 143.37 405.361 143.177 405.512 143.035C405.664 142.893 405.869 142.813 406.084 142.812H411.293C411.508 142.813 411.713 142.893 411.865 143.035C412.016 143.177 412.101 143.37 412.102 143.571V143.655C412.101 144.505 411.741 145.319 411.101 145.92C410.461 146.52 409.593 146.858 408.688 146.859Z" fill="#3DCA86"/>
<path d="M411.431 141.295H405.947C405.87 141.295 405.795 141.276 405.728 141.241C405.661 141.206 405.605 141.156 405.565 141.095C405.524 141.034 405.501 140.964 405.498 140.892C405.495 140.82 405.511 140.749 405.545 140.685L406.623 138.661C406.66 138.591 406.717 138.532 406.788 138.491C406.859 138.449 406.941 138.428 407.024 138.428H410.353C410.436 138.428 410.518 138.449 410.589 138.491C410.66 138.532 410.717 138.591 410.754 138.661L411.832 140.685C411.867 140.749 411.883 140.82 411.879 140.892C411.876 140.964 411.853 141.034 411.813 141.095C411.772 141.156 411.716 141.206 411.649 141.241C411.582 141.276 411.507 141.295 411.431 141.295Z" fill="#5633A2"/>
<path d="M427.101 146.944H421.173V149.979H427.101V146.944Z" fill="#3DCA86"/>
<path d="M423.868 147.618H421.533V149.979H423.868V147.618Z" fill="#1B1B1F"/>
<path d="M426.742 147.618H424.407V149.979H426.742V147.618Z" fill="#1B1B1F"/>
<path d="M421.533 149.389C421.366 149.389 421.206 149.451 421.088 149.562C420.97 149.672 420.904 149.822 420.904 149.979V150.063C420.903 150.462 420.987 150.857 421.149 151.226C421.311 151.594 421.549 151.929 421.85 152.211C422.15 152.494 422.507 152.718 422.899 152.87C423.292 153.023 423.712 153.102 424.137 153.102C424.562 153.102 424.983 153.023 425.375 152.87C425.768 152.718 426.125 152.494 426.425 152.211C426.725 151.929 426.963 151.594 427.126 151.226C427.288 150.857 427.371 150.462 427.371 150.063V149.979C427.371 149.822 427.304 149.672 427.186 149.562C427.068 149.451 426.909 149.389 426.742 149.389H421.533Z" fill="#3DCA86"/>
<path d="M422.473 145.004C422.423 145.004 422.374 145.017 422.331 145.042C422.289 145.067 422.255 145.102 422.232 145.144L421.154 147.168C421.134 147.206 421.124 147.249 421.126 147.292C421.128 147.335 421.142 147.377 421.166 147.414C421.19 147.451 421.224 147.481 421.264 147.502C421.304 147.523 421.35 147.534 421.395 147.534H426.879C426.925 147.534 426.97 147.523 427.011 147.502C427.051 147.481 427.084 147.451 427.109 147.414C427.133 147.377 427.146 147.335 427.149 147.292C427.151 147.249 427.141 147.206 427.12 147.168L426.043 145.144C426.02 145.102 425.986 145.067 425.943 145.042C425.901 145.017 425.852 145.004 425.802 145.004H422.473Z" fill="#5633A2"/>
<path d="M345.052 189.025C345.106 189.025 345.157 189.005 345.195 188.97C345.233 188.934 345.255 188.885 345.255 188.835C345.255 188.785 345.233 188.736 345.195 188.7C345.157 188.665 345.106 188.645 345.052 188.645H343.126V187.884H345.052C345.106 187.884 345.157 187.864 345.195 187.828C345.233 187.792 345.255 187.744 345.255 187.693C345.255 187.643 345.233 187.594 345.195 187.559C345.157 187.523 345.106 187.503 345.052 187.503H328.634C328.58 187.503 328.529 187.523 328.491 187.559C328.453 187.594 328.431 187.643 328.431 187.693C328.431 187.744 328.453 187.792 328.491 187.828C328.529 187.864 328.58 187.884 328.634 187.884H330.559V188.645H328.634C328.58 188.645 328.529 188.665 328.491 188.7C328.453 188.736 328.431 188.785 328.431 188.835C328.431 188.885 328.453 188.934 328.491 188.97C328.529 189.005 328.58 189.025 328.634 189.025H330.559V189.786H328.634C328.58 189.786 328.529 189.806 328.491 189.842C328.453 189.878 328.431 189.926 328.431 189.977C328.431 190.027 328.453 190.075 328.491 190.111C328.529 190.147 328.58 190.167 328.634 190.167H330.559V190.928H328.837C328.729 190.928 328.626 190.968 328.55 191.039C328.474 191.111 328.431 191.208 328.431 191.308C328.431 191.409 328.474 191.506 328.55 191.578C328.626 191.649 328.729 191.689 328.837 191.689H330.477C330.465 191.719 330.458 191.752 330.458 191.784V194.448C330.458 194.524 330.49 194.596 330.547 194.65C330.604 194.703 330.681 194.733 330.762 194.733C330.843 194.733 330.92 194.703 330.977 194.65C331.034 194.596 331.066 194.524 331.066 194.448V191.784C331.066 191.752 331.06 191.719 331.048 191.689H342.638C342.626 191.719 342.62 191.752 342.62 191.784V194.448C342.62 194.524 342.652 194.596 342.709 194.65C342.766 194.703 342.843 194.733 342.924 194.733C343.004 194.733 343.082 194.703 343.139 194.65C343.196 194.596 343.228 194.524 343.228 194.448V191.784C343.227 191.752 343.221 191.719 343.209 191.689H344.849C344.957 191.689 345.06 191.649 345.136 191.578C345.212 191.506 345.255 191.409 345.255 191.308C345.255 191.208 345.212 191.111 345.136 191.039C345.06 190.968 344.957 190.928 344.849 190.928H343.126V190.167H345.052C345.106 190.167 345.157 190.147 345.195 190.111C345.233 190.075 345.255 190.027 345.255 189.977C345.255 189.926 345.233 189.878 345.195 189.842C345.157 189.806 345.106 189.786 345.052 189.786H343.126V189.025H345.052ZM330.965 187.884H342.721V188.645H330.965V187.884ZM342.721 190.928H330.965V190.167H342.721V190.928ZM342.721 189.786H330.965V189.025H342.721V189.786Z" fill="#2B2752"/>
<path d="M408.392 211.798C408.446 211.798 408.498 211.778 408.536 211.742C408.574 211.706 408.595 211.658 408.595 211.607C408.595 211.557 408.574 211.509 408.536 211.473C408.498 211.437 408.446 211.417 408.392 211.417H406.467V210.656H408.392C408.446 210.656 408.498 210.636 408.536 210.6C408.574 210.565 408.595 210.516 408.595 210.466C408.595 210.415 408.574 210.367 408.536 210.331C408.498 210.296 408.446 210.276 408.392 210.276H391.974C391.92 210.276 391.869 210.296 391.831 210.331C391.793 210.367 391.771 210.415 391.771 210.466C391.771 210.516 391.793 210.565 391.831 210.6C391.869 210.636 391.92 210.656 391.974 210.656H393.9V211.417H391.974C391.92 211.417 391.869 211.437 391.831 211.473C391.793 211.509 391.771 211.557 391.771 211.607C391.771 211.658 391.793 211.706 391.831 211.742C391.869 211.778 391.92 211.798 391.974 211.798H393.9V212.559H391.974C391.92 212.559 391.869 212.579 391.831 212.614C391.793 212.65 391.771 212.699 391.771 212.749C391.771 212.799 391.793 212.848 391.831 212.884C391.869 212.919 391.92 212.939 391.974 212.939H393.9V213.7H392.177C392.069 213.7 391.966 213.74 391.89 213.812C391.814 213.883 391.771 213.98 391.771 214.081C391.771 214.182 391.814 214.279 391.89 214.35C391.966 214.421 392.069 214.461 392.177 214.461H393.817C393.805 214.492 393.799 214.524 393.798 214.557V217.22C393.798 217.258 393.806 217.295 393.821 217.33C393.836 217.365 393.859 217.396 393.887 217.423C393.915 217.449 393.949 217.47 393.986 217.485C394.023 217.499 394.062 217.507 394.102 217.507C394.142 217.507 394.182 217.499 394.219 217.485C394.256 217.47 394.29 217.449 394.318 217.423C394.346 217.396 394.368 217.365 394.384 217.33C394.399 217.295 394.407 217.258 394.406 217.22V214.557C394.406 214.524 394.4 214.492 394.388 214.461H405.979C405.967 214.492 405.96 214.524 405.96 214.557V217.22C405.96 217.296 405.992 217.369 406.049 217.422C406.106 217.476 406.183 217.506 406.264 217.506C406.345 217.506 406.422 217.476 406.479 217.422C406.536 217.369 406.568 217.296 406.568 217.22V214.557C406.568 214.524 406.562 214.492 406.55 214.461H408.19C408.297 214.461 408.4 214.421 408.476 214.35C408.552 214.279 408.595 214.182 408.595 214.081C408.595 213.98 408.552 213.883 408.476 213.812C408.4 213.74 408.297 213.7 408.19 213.7H406.467V212.939H408.392C408.446 212.939 408.498 212.919 408.536 212.884C408.574 212.848 408.595 212.799 408.595 212.749C408.595 212.699 408.574 212.65 408.536 212.614C408.498 212.579 408.446 212.559 408.392 212.559H406.467V211.798L408.392 211.798ZM394.305 210.656H406.061V211.417H394.305V210.656ZM406.061 213.7H394.305V212.939H406.061V213.7ZM406.061 212.559H394.305V211.798H406.061V212.559Z" fill="#2B2752"/>
<path d="M459.484 186.83C459.537 186.83 459.589 186.81 459.627 186.775C459.665 186.739 459.686 186.69 459.686 186.64C459.686 186.59 459.665 186.541 459.627 186.505C459.589 186.47 459.537 186.45 459.484 186.45H457.558V185.689H459.484C459.537 185.689 459.589 185.669 459.627 185.633C459.665 185.597 459.686 185.549 459.686 185.498C459.686 185.448 459.665 185.4 459.627 185.364C459.589 185.328 459.537 185.308 459.484 185.308H443.065C443.012 185.308 442.96 185.328 442.922 185.364C442.884 185.4 442.863 185.448 442.863 185.498C442.863 185.549 442.884 185.597 442.922 185.633C442.96 185.669 443.012 185.689 443.065 185.689H444.991V186.45H443.065C443.012 186.45 442.96 186.47 442.922 186.505C442.884 186.541 442.863 186.59 442.863 186.64C442.863 186.69 442.884 186.739 442.922 186.775C442.96 186.81 443.012 186.83 443.065 186.83H444.991V187.591H443.065C443.012 187.591 442.96 187.611 442.922 187.647C442.884 187.683 442.863 187.731 442.863 187.782C442.863 187.832 442.884 187.88 442.922 187.916C442.96 187.952 443.012 187.972 443.065 187.972H444.991V188.733H443.268C443.161 188.733 443.058 188.773 442.982 188.845C442.907 188.916 442.864 189.013 442.864 189.114C442.864 189.214 442.907 189.311 442.982 189.382C443.058 189.454 443.161 189.494 443.268 189.494H444.908C444.896 189.525 444.89 189.557 444.89 189.589V192.253C444.89 192.329 444.922 192.401 444.979 192.455C445.036 192.508 445.113 192.538 445.194 192.538C445.274 192.538 445.352 192.508 445.409 192.455C445.466 192.401 445.498 192.329 445.498 192.253V189.589C445.497 189.557 445.491 189.525 445.479 189.494H457.07C457.058 189.525 457.052 189.557 457.051 189.589V192.253C457.051 192.329 457.083 192.401 457.14 192.455C457.197 192.508 457.275 192.538 457.355 192.538C457.436 192.538 457.513 192.508 457.57 192.455C457.627 192.401 457.659 192.329 457.659 192.253V189.589C457.659 189.557 457.653 189.525 457.641 189.494H459.281C459.334 189.494 459.387 189.484 459.437 189.465C459.486 189.446 459.531 189.418 459.568 189.383C459.606 189.348 459.636 189.306 459.657 189.259C459.677 189.213 459.688 189.164 459.688 189.114C459.688 189.063 459.677 189.014 459.657 188.968C459.636 188.921 459.606 188.879 459.568 188.844C459.531 188.809 459.486 188.781 459.437 188.762C459.387 188.743 459.334 188.733 459.281 188.733H457.558V187.972H459.484C459.537 187.972 459.589 187.952 459.627 187.916C459.665 187.88 459.686 187.832 459.686 187.782C459.686 187.731 459.665 187.683 459.627 187.647C459.589 187.611 459.537 187.591 459.484 187.591H457.558V186.83H459.484ZM445.396 185.689H457.153V186.45H445.396V185.689ZM457.153 188.733H445.396V187.972H457.153V188.733ZM457.153 187.591H445.396V186.83H457.153V187.591Z" fill="#2B2752"/>
<path d="M382.536 234.671C382.536 229.792 378.32 218.213 373.118 218.213C367.916 218.213 363.699 229.792 363.699 234.671C363.701 237.015 364.694 239.263 366.46 240.919C368.226 242.576 370.621 243.507 373.118 243.507C375.615 243.507 378.01 242.576 379.776 240.919C381.542 239.263 382.535 237.015 382.536 234.671Z" fill="#8E5454"/>
<path d="M373.117 254.249C373.089 254.249 373.062 254.239 373.041 254.22C373.021 254.201 373.01 254.175 373.01 254.148V233.509C373.01 233.496 373.012 233.483 373.018 233.47C373.023 233.458 373.031 233.447 373.041 233.437C373.051 233.428 373.063 233.42 373.076 233.415C373.089 233.41 373.103 233.407 373.117 233.407C373.132 233.407 373.146 233.41 373.159 233.415C373.172 233.42 373.184 233.428 373.194 233.437C373.204 233.447 373.212 233.458 373.217 233.47C373.223 233.483 373.225 233.496 373.225 233.509V254.148C373.225 254.175 373.214 254.201 373.194 254.22C373.173 254.239 373.146 254.249 373.117 254.249Z" fill="#3DCA86"/>
<path d="M373.118 237.365C373.102 237.365 373.087 237.362 373.073 237.356C373.059 237.35 373.046 237.341 373.036 237.33L367.619 231.466C367.601 231.446 367.591 231.42 367.594 231.393C367.596 231.366 367.609 231.342 367.63 231.324C367.652 231.307 367.68 231.298 367.708 231.3C367.737 231.301 367.763 231.314 367.782 231.334L373.199 237.198C373.212 237.212 373.221 237.23 373.224 237.25C373.227 237.269 373.224 237.288 373.215 237.306C373.207 237.324 373.193 237.339 373.176 237.349C373.158 237.36 373.138 237.365 373.118 237.365Z" fill="#3DCA86"/>
<path d="M373.117 240.749C373.096 240.749 373.075 240.743 373.058 240.732C373.04 240.721 373.026 240.705 373.018 240.687C373.01 240.668 373.008 240.648 373.012 240.629C373.016 240.609 373.026 240.591 373.041 240.577L376.119 237.687C376.139 237.669 376.167 237.658 376.195 237.658C376.224 237.658 376.251 237.669 376.271 237.688C376.292 237.706 376.303 237.732 376.303 237.759C376.303 237.786 376.292 237.811 376.272 237.83L373.194 240.72C373.184 240.729 373.172 240.737 373.159 240.742C373.146 240.747 373.132 240.749 373.117 240.749Z" fill="#3DCA86"/>
<path d="M292.702 138.917C292.702 134.038 288.486 122.459 283.284 122.459C278.082 122.459 273.865 134.038 273.865 138.917C273.867 141.261 274.86 143.509 276.626 145.165C278.392 146.822 280.787 147.753 283.284 147.753C285.781 147.753 288.176 146.822 289.942 145.165C291.708 143.509 292.701 141.261 292.702 138.917Z" fill="#2B2752"/>
<path d="M283.284 158.495C283.255 158.495 283.228 158.485 283.208 158.466C283.188 158.447 283.176 158.421 283.176 158.394V137.755C283.176 137.728 283.188 137.703 283.208 137.684C283.228 137.665 283.256 137.655 283.284 137.655C283.312 137.655 283.34 137.665 283.36 137.684C283.38 137.703 283.392 137.728 283.392 137.755V158.394C283.392 158.407 283.389 158.421 283.383 158.433C283.378 158.445 283.37 158.456 283.36 158.466C283.35 158.475 283.338 158.483 283.325 158.488C283.312 158.493 283.298 158.495 283.284 158.495Z" fill="#3DCA86"/>
<path d="M283.284 141.611C283.268 141.611 283.253 141.608 283.239 141.602C283.225 141.596 283.212 141.587 283.202 141.576L277.785 135.712C277.767 135.692 277.757 135.666 277.76 135.639C277.762 135.612 277.775 135.587 277.796 135.57C277.818 135.552 277.846 135.544 277.874 135.545C277.903 135.547 277.929 135.56 277.948 135.58L283.365 141.444C283.379 141.458 283.387 141.476 283.39 141.496C283.393 141.515 283.39 141.534 283.382 141.552C283.373 141.57 283.359 141.585 283.342 141.595C283.325 141.606 283.304 141.611 283.284 141.611Z" fill="#3DCA86"/>
<path d="M283.284 144.995C283.263 144.995 283.242 144.989 283.224 144.978C283.206 144.967 283.193 144.951 283.184 144.933C283.176 144.914 283.174 144.894 283.178 144.875C283.182 144.855 283.193 144.837 283.208 144.823L286.286 141.933C286.296 141.924 286.308 141.917 286.321 141.912C286.334 141.906 286.348 141.904 286.362 141.904C286.376 141.904 286.39 141.906 286.403 141.912C286.416 141.917 286.428 141.924 286.438 141.933C286.448 141.943 286.456 141.954 286.461 141.966C286.467 141.979 286.47 141.992 286.47 142.005C286.47 142.018 286.467 142.031 286.461 142.044C286.456 142.056 286.448 142.067 286.438 142.076L283.36 144.966C283.35 144.975 283.338 144.983 283.325 144.988C283.312 144.993 283.298 144.995 283.284 144.995Z" fill="#3DCA86"/>
<path d="M273.083 158.361C273.083 157.382 273.497 156.444 274.234 155.751C274.972 155.059 275.972 154.67 277.015 154.67C278.057 154.67 279.058 155.059 279.795 155.751C280.532 156.444 280.947 157.382 280.947 158.361" fill="#8E5454"/>
<path d="M277.014 158.361C276.986 158.361 276.959 158.351 276.939 158.332C276.919 158.313 276.908 158.288 276.908 158.262V156.316C276.908 156.29 276.919 156.264 276.939 156.246C276.959 156.227 276.986 156.217 277.014 156.217C277.043 156.217 277.07 156.227 277.09 156.246C277.11 156.264 277.121 156.29 277.121 156.316V158.262C277.121 158.288 277.11 158.313 277.09 158.332C277.07 158.351 277.043 158.361 277.014 158.361Z" fill="#3DCA86"/>
<path d="M277.014 157.693C276.989 157.693 276.964 157.684 276.945 157.669L275.67 156.641C275.659 156.633 275.651 156.622 275.644 156.611C275.638 156.599 275.634 156.586 275.633 156.573C275.632 156.56 275.634 156.547 275.638 156.535C275.642 156.522 275.649 156.511 275.658 156.501C275.668 156.491 275.679 156.483 275.691 156.477C275.704 156.471 275.717 156.467 275.731 156.466C275.745 156.465 275.759 156.467 275.772 156.471C275.785 156.475 275.798 156.481 275.808 156.49L277.084 157.517C277.1 157.531 277.112 157.548 277.117 157.568C277.123 157.588 277.122 157.609 277.114 157.628C277.106 157.647 277.093 157.663 277.075 157.675C277.057 157.687 277.036 157.693 277.014 157.693Z" fill="#3DCA86"/>
<path d="M285.197 158.361C285.197 157.382 285.612 156.444 286.349 155.751C287.086 155.059 288.086 154.67 289.129 154.67C290.172 154.67 291.172 155.059 291.91 155.751C292.647 156.444 293.061 157.382 293.061 158.361" fill="#8E5454"/>
<path d="M289.13 158.361C289.102 158.361 289.074 158.351 289.055 158.332C289.035 158.313 289.023 158.288 289.023 158.262V156.316C289.023 156.29 289.035 156.264 289.055 156.246C289.074 156.227 289.102 156.217 289.13 156.217C289.158 156.217 289.185 156.227 289.205 156.246C289.225 156.264 289.236 156.29 289.236 156.316V158.262C289.236 158.288 289.225 158.313 289.205 158.332C289.185 158.351 289.158 158.361 289.13 158.361Z" fill="#3DCA86"/>
<path d="M289.13 157.693C289.104 157.693 289.08 157.684 289.06 157.669L287.785 156.641C287.764 156.624 287.751 156.6 287.749 156.573C287.747 156.547 287.756 156.521 287.774 156.501C287.792 156.481 287.818 156.469 287.846 156.467C287.874 156.465 287.902 156.473 287.924 156.49L289.199 157.517C289.215 157.531 289.227 157.548 289.233 157.568C289.238 157.588 289.237 157.609 289.229 157.628C289.222 157.647 289.208 157.663 289.19 157.675C289.172 157.687 289.151 157.693 289.13 157.693Z" fill="#3DCA86"/>
<path d="M490.579 234.397C490.579 229.517 486.362 217.938 481.16 217.938C475.959 217.938 471.742 229.517 471.742 234.397C471.743 236.741 472.736 238.988 474.502 240.645C476.269 242.302 478.663 243.233 481.16 243.233C483.657 243.233 486.052 242.302 487.818 240.645C489.584 238.988 490.577 236.741 490.579 234.397Z" fill="#5633A2"/>
<path d="M481.16 253.975C481.132 253.975 481.104 253.964 481.084 253.945C481.064 253.926 481.053 253.901 481.053 253.874V233.235C481.053 233.221 481.055 233.208 481.061 233.196C481.066 233.184 481.074 233.172 481.084 233.163C481.094 233.153 481.106 233.146 481.119 233.141C481.132 233.136 481.146 233.133 481.16 233.133C481.175 233.133 481.189 233.136 481.202 233.141C481.215 233.146 481.227 233.153 481.237 233.163C481.247 233.172 481.255 233.184 481.26 233.196C481.265 233.208 481.268 233.221 481.268 233.235V253.874C481.268 253.901 481.257 253.926 481.237 253.945C481.216 253.964 481.189 253.975 481.16 253.975Z" fill="#3DCA86"/>
<path d="M481.16 237.091C481.145 237.091 481.13 237.088 481.116 237.082C481.102 237.076 481.089 237.067 481.079 237.056L475.662 231.192C475.644 231.172 475.634 231.145 475.637 231.119C475.639 231.092 475.652 231.067 475.673 231.05C475.695 231.032 475.723 231.023 475.751 231.025C475.78 231.027 475.806 231.039 475.825 231.06L481.242 236.923C481.255 236.938 481.264 236.956 481.267 236.975C481.27 236.994 481.267 237.014 481.258 237.032C481.25 237.049 481.236 237.064 481.219 237.075C481.201 237.085 481.181 237.091 481.16 237.091Z" fill="#3DCA86"/>
<path d="M481.16 240.475C481.139 240.475 481.118 240.469 481.101 240.458C481.083 240.447 481.069 240.431 481.061 240.413C481.053 240.394 481.051 240.374 481.055 240.354C481.059 240.335 481.069 240.317 481.084 240.302L484.162 237.413C484.172 237.404 484.184 237.396 484.197 237.391C484.21 237.386 484.224 237.383 484.238 237.383C484.253 237.383 484.267 237.386 484.28 237.391C484.293 237.396 484.305 237.404 484.315 237.413C484.325 237.422 484.332 237.434 484.338 237.446C484.343 237.458 484.346 237.471 484.346 237.485C484.346 237.498 484.343 237.511 484.338 237.523C484.332 237.536 484.325 237.547 484.315 237.556L481.237 240.445C481.227 240.455 481.215 240.462 481.202 240.467C481.189 240.472 481.175 240.475 481.16 240.475Z" fill="#3DCA86"/>
<path d="M342.732 235.944H340.907C340.771 235.944 340.64 235.893 340.544 235.803C340.448 235.712 340.394 235.59 340.394 235.462V233.213C340.394 233.085 340.448 232.963 340.544 232.873C340.64 232.782 340.771 232.731 340.907 232.731H342.732C342.868 232.731 342.999 232.782 343.095 232.873C343.191 232.963 343.245 233.085 343.246 233.213V235.462C343.245 235.59 343.191 235.712 343.095 235.803C342.999 235.893 342.868 235.944 342.732 235.944Z" fill="#2B2752"/>
<path d="M358.133 254.256H348.778C348.521 254.256 348.275 254.16 348.093 253.989C347.911 253.819 347.809 253.587 347.809 253.346V236.319C347.809 236.077 347.911 235.846 348.093 235.675C348.275 235.505 348.521 235.409 348.778 235.408H358.133C358.39 235.409 358.637 235.505 358.818 235.675C359 235.846 359.102 236.077 359.103 236.319V253.346C359.102 253.587 359 253.819 358.818 253.989C358.637 254.16 358.39 254.256 358.133 254.256Z" fill="#2B2752"/>
<path d="M352.543 254.256H336.344C336.087 254.256 335.84 254.16 335.658 253.989C335.477 253.819 335.374 253.587 335.374 253.346V236.319C335.374 236.077 335.477 235.846 335.658 235.675C335.84 235.505 336.087 235.409 336.344 235.408H352.543C352.8 235.409 353.047 235.505 353.229 235.675C353.411 235.846 353.513 236.077 353.513 236.319V253.346C353.513 253.587 353.411 253.819 353.229 253.989C353.047 254.16 352.8 254.256 352.543 254.256Z" fill="#5633A2"/>
<path d="M341.021 235.944H339.196C339.059 235.944 338.929 235.893 338.833 235.803C338.736 235.712 338.682 235.59 338.682 235.462V233.213C338.682 233.085 338.736 232.963 338.833 232.873C338.929 232.782 339.059 232.731 339.196 232.731H341.021C341.157 232.731 341.287 232.782 341.384 232.873C341.48 232.963 341.534 233.085 341.534 233.213V235.462C341.534 235.59 341.48 235.712 341.384 235.803C341.287 235.893 341.157 235.944 341.021 235.944Z" fill="#5633A2"/>
<path d="M343.417 243.815H341.249C341.173 243.815 341.101 243.787 341.047 243.736C340.994 243.686 340.964 243.618 340.964 243.547V240.442C340.964 240.371 340.994 240.303 341.047 240.252C341.101 240.202 341.173 240.174 341.249 240.174H343.417C343.492 240.174 343.565 240.202 343.618 240.252C343.672 240.303 343.702 240.371 343.702 240.442V243.547C343.702 243.618 343.672 243.686 343.618 243.736C343.565 243.787 343.492 243.815 343.417 243.815Z" fill="#1B1B1F"/>
<path d="M347.638 243.815H345.47C345.395 243.815 345.322 243.787 345.269 243.736C345.215 243.686 345.185 243.618 345.185 243.547V240.442C345.185 240.371 345.215 240.303 345.269 240.252C345.322 240.202 345.395 240.174 345.47 240.174H347.638C347.713 240.174 347.786 240.202 347.839 240.252C347.893 240.303 347.923 240.371 347.923 240.442V243.547C347.923 243.618 347.893 243.686 347.839 243.736C347.786 243.787 347.713 243.815 347.638 243.815Z" fill="#1B1B1F"/>
<path d="M343.417 249.491H341.249C341.173 249.491 341.101 249.462 341.047 249.412C340.994 249.362 340.964 249.294 340.964 249.223V246.117C340.964 246.046 340.994 245.978 341.047 245.928C341.101 245.878 341.173 245.85 341.249 245.85H343.417C343.492 245.85 343.565 245.878 343.618 245.928C343.672 245.978 343.702 246.046 343.702 246.117V249.223C343.702 249.294 343.672 249.362 343.618 249.412C343.565 249.462 343.492 249.491 343.417 249.491Z" fill="#1B1B1F"/>
<path d="M347.638 249.491H345.47C345.395 249.491 345.322 249.462 345.269 249.412C345.215 249.362 345.185 249.294 345.185 249.223V246.117C345.185 246.046 345.215 245.978 345.269 245.928C345.322 245.878 345.395 245.85 345.47 245.85H347.638C347.713 245.85 347.786 245.878 347.839 245.928C347.893 245.978 347.923 246.046 347.923 246.117V249.223C347.923 249.294 347.893 249.362 347.839 249.412C347.786 249.462 347.713 249.491 347.638 249.491Z" fill="#1B1B1F"/>
<path d="M277.801 182.57H275.648C275.487 182.57 275.334 182.51 275.22 182.404C275.107 182.297 275.043 182.153 275.042 182.002V177.329C275.043 177.178 275.107 177.034 275.22 176.927C275.334 176.82 275.487 176.761 275.648 176.76H277.801C277.961 176.761 278.115 176.82 278.229 176.927C278.342 177.034 278.406 177.178 278.406 177.329V182.002C278.406 182.153 278.342 182.297 278.229 182.404C278.115 182.51 277.961 182.57 277.801 182.57Z" fill="#2B2752"/>
<path d="M286.278 226.146H275.244C274.941 226.146 274.65 226.033 274.436 225.832C274.222 225.63 274.101 225.357 274.101 225.073V183.265C274.101 182.981 274.222 182.708 274.436 182.506C274.65 182.305 274.941 182.192 275.244 182.192H286.278C286.581 182.192 286.872 182.305 287.086 182.506C287.301 182.708 287.421 182.981 287.422 183.265V225.073C287.421 225.357 287.301 225.63 287.086 225.832C286.872 226.033 286.581 226.146 286.278 226.146Z" fill="#2B2752"/>
<path d="M279.685 226.146H268.651C268.348 226.146 268.057 226.033 267.843 225.832C267.628 225.63 267.508 225.357 267.507 225.073V183.265C267.508 182.981 267.628 182.708 267.843 182.506C268.057 182.305 268.348 182.192 268.651 182.192H279.685C279.988 182.192 280.279 182.305 280.493 182.506C280.707 182.708 280.828 182.981 280.828 183.265V225.073C280.828 225.357 280.707 225.63 280.493 225.832C280.279 226.033 279.988 226.146 279.685 226.146Z" fill="#5633A2"/>
<path d="M275.782 182.57H273.629C273.469 182.57 273.315 182.51 273.201 182.404C273.088 182.297 273.024 182.153 273.024 182.002V177.329C273.024 177.178 273.088 177.034 273.201 176.927C273.315 176.82 273.469 176.761 273.629 176.76H275.782C275.943 176.761 276.097 176.82 276.21 176.927C276.324 177.034 276.388 177.178 276.388 177.329V182.002C276.388 182.153 276.324 182.297 276.21 182.404C276.097 182.51 275.943 182.57 275.782 182.57Z" fill="#5633A2"/>
<path d="M272.957 191.665H270.4C270.311 191.665 270.226 191.631 270.163 191.572C270.1 191.513 270.064 191.433 270.064 191.349V187.686C270.064 187.602 270.1 187.522 270.163 187.463C270.226 187.404 270.311 187.37 270.4 187.37H272.957C273.046 187.37 273.132 187.404 273.195 187.463C273.258 187.522 273.293 187.602 273.293 187.686V191.349C273.293 191.433 273.258 191.513 273.195 191.572C273.132 191.631 273.046 191.665 272.957 191.665Z" fill="#1B1B1F"/>
<path d="M277.935 191.665H275.379C275.29 191.665 275.204 191.631 275.141 191.572C275.078 191.513 275.043 191.433 275.042 191.349V187.686C275.043 187.602 275.078 187.522 275.141 187.463C275.204 187.404 275.29 187.37 275.379 187.37H277.935C278.025 187.37 278.11 187.404 278.173 187.463C278.236 187.522 278.272 187.602 278.272 187.686V191.349C278.272 191.433 278.236 191.513 278.173 191.572C278.11 191.631 278.025 191.665 277.935 191.665Z" fill="#1B1B1F"/>
<path d="M272.957 198.359H270.4C270.311 198.359 270.226 198.325 270.163 198.266C270.1 198.207 270.064 198.127 270.064 198.043V194.38C270.064 194.297 270.1 194.216 270.163 194.157C270.226 194.098 270.311 194.065 270.4 194.064H272.957C273.046 194.065 273.132 194.098 273.195 194.157C273.258 194.216 273.293 194.297 273.293 194.38V198.043C273.293 198.127 273.258 198.207 273.195 198.266C273.132 198.325 273.046 198.359 272.957 198.359Z" fill="#1B1B1F"/>
<path d="M277.935 198.359H275.379C275.29 198.359 275.204 198.325 275.141 198.266C275.078 198.207 275.043 198.127 275.042 198.043V194.38C275.043 194.297 275.078 194.216 275.141 194.157C275.204 194.098 275.29 194.065 275.379 194.064H277.935C278.025 194.065 278.11 194.098 278.173 194.157C278.236 194.216 278.272 194.297 278.272 194.38V198.043C278.272 198.127 278.236 198.207 278.173 198.266C278.11 198.325 278.025 198.359 277.935 198.359Z" fill="#1B1B1F"/>
<path d="M272.957 205.053H270.4C270.311 205.053 270.226 205.02 270.163 204.961C270.1 204.901 270.064 204.821 270.064 204.737V201.074C270.064 200.991 270.1 200.91 270.163 200.851C270.226 200.792 270.311 200.759 270.4 200.759H272.957C273.046 200.759 273.132 200.792 273.195 200.851C273.258 200.91 273.293 200.991 273.293 201.074V204.737C273.293 204.821 273.258 204.901 273.195 204.961C273.132 205.02 273.046 205.053 272.957 205.053Z" fill="#1B1B1F"/>
<path d="M277.935 205.053H275.379C275.29 205.053 275.204 205.02 275.141 204.961C275.078 204.901 275.043 204.821 275.042 204.737V201.074C275.043 200.991 275.078 200.91 275.141 200.851C275.204 200.792 275.29 200.759 275.379 200.759H277.935C278.025 200.759 278.11 200.792 278.173 200.851C278.236 200.91 278.272 200.991 278.272 201.074V204.737C278.272 204.821 278.236 204.901 278.173 204.961C278.11 205.02 278.025 205.053 277.935 205.053Z" fill="#1B1B1F"/>
<path d="M272.957 211.747H270.4C270.311 211.747 270.226 211.714 270.163 211.655C270.1 211.596 270.064 211.515 270.064 211.432V207.769C270.064 207.685 270.1 207.605 270.163 207.546C270.226 207.486 270.311 207.453 270.4 207.453H272.957C273.046 207.453 273.132 207.486 273.195 207.546C273.258 207.605 273.293 207.685 273.293 207.769V211.432C273.293 211.515 273.258 211.596 273.195 211.655C273.132 211.714 273.046 211.747 272.957 211.747Z" fill="#1B1B1F"/>
<path d="M277.935 211.747H275.379C275.29 211.747 275.204 211.714 275.141 211.655C275.078 211.596 275.043 211.515 275.042 211.432V207.769C275.043 207.685 275.078 207.605 275.141 207.546C275.204 207.486 275.29 207.453 275.379 207.453H277.935C278.025 207.453 278.11 207.486 278.173 207.546C278.236 207.605 278.272 207.685 278.272 207.769V211.432C278.272 211.515 278.236 211.596 278.173 211.655C278.11 211.714 278.025 211.747 277.935 211.747Z" fill="#1B1B1F"/>
<path d="M272.957 218.442H270.4C270.311 218.442 270.226 218.408 270.163 218.349C270.1 218.29 270.064 218.21 270.064 218.126V214.463C270.064 214.379 270.1 214.299 270.163 214.24C270.226 214.181 270.311 214.147 270.4 214.147H272.957C273.046 214.147 273.132 214.181 273.195 214.24C273.258 214.299 273.293 214.379 273.293 214.463V218.126C273.293 218.21 273.258 218.29 273.195 218.349C273.132 218.408 273.046 218.442 272.957 218.442Z" fill="#1B1B1F"/>
<path d="M277.935 218.442H275.379C275.29 218.442 275.204 218.408 275.141 218.349C275.078 218.29 275.043 218.21 275.042 218.126V214.463C275.043 214.379 275.078 214.299 275.141 214.24C275.204 214.181 275.29 214.147 275.379 214.147H277.935C278.025 214.147 278.11 214.181 278.173 214.24C278.236 214.299 278.272 214.379 278.272 214.463V218.126C278.272 218.21 278.236 218.29 278.173 218.349C278.11 218.408 278.025 218.442 277.935 218.442Z" fill="#1B1B1F"/>
<path d="M449.035 236.001H447.21C447.074 236.001 446.943 235.95 446.847 235.86C446.751 235.77 446.696 235.647 446.696 235.519V233.271C446.696 233.143 446.751 233.02 446.847 232.93C446.943 232.84 447.074 232.789 447.21 232.789H449.035C449.171 232.789 449.302 232.84 449.398 232.93C449.494 233.02 449.548 233.143 449.548 233.271V235.519C449.548 235.647 449.494 235.77 449.398 235.86C449.302 235.95 449.171 236.001 449.035 236.001Z" fill="#2B2752"/>
<path d="M464.436 254.314H455.081C454.824 254.313 454.577 254.217 454.396 254.047C454.214 253.876 454.112 253.645 454.111 253.403V236.376C454.112 236.135 454.214 235.903 454.396 235.733C454.577 235.562 454.824 235.466 455.081 235.466H464.436C464.693 235.466 464.939 235.562 465.121 235.733C465.303 235.903 465.405 236.135 465.405 236.376V253.403C465.405 253.645 465.303 253.876 465.121 254.047C464.939 254.217 464.693 254.313 464.436 254.314Z" fill="#2B2752"/>
<path d="M458.846 254.314H442.646C442.389 254.313 442.143 254.217 441.961 254.047C441.779 253.876 441.677 253.645 441.677 253.403V236.376C441.677 236.135 441.779 235.903 441.961 235.733C442.143 235.562 442.389 235.466 442.646 235.466H458.846C459.103 235.466 459.35 235.562 459.531 235.733C459.713 235.903 459.816 236.135 459.816 236.376V253.403C459.816 253.645 459.713 253.876 459.532 254.047C459.35 254.217 459.103 254.313 458.846 254.314Z" fill="#5633A2"/>
<path d="M447.324 236.001H445.498C445.362 236.001 445.232 235.95 445.135 235.86C445.039 235.77 444.985 235.647 444.985 235.519V233.271C444.985 233.143 445.039 233.02 445.135 232.93C445.232 232.84 445.362 232.789 445.498 232.789H447.324C447.46 232.789 447.59 232.84 447.686 232.93C447.783 233.02 447.837 233.143 447.837 233.271V235.519C447.837 235.647 447.783 235.77 447.686 235.86C447.59 235.95 447.46 236.001 447.324 236.001Z" fill="#5633A2"/>
<path d="M449.719 243.872H447.552C447.476 243.872 447.404 243.844 447.35 243.794C447.297 243.744 447.267 243.676 447.267 243.605V240.499C447.267 240.428 447.297 240.36 447.35 240.31C447.404 240.26 447.476 240.231 447.552 240.231H449.719C449.795 240.231 449.867 240.26 449.921 240.31C449.974 240.36 450.004 240.428 450.005 240.499V243.605C450.004 243.676 449.974 243.744 449.921 243.794C449.867 243.844 449.795 243.872 449.719 243.872Z" fill="#1B1B1F"/>
<path d="M453.941 243.872H451.773C451.697 243.872 451.625 243.844 451.571 243.794C451.518 243.744 451.488 243.676 451.488 243.605V240.499C451.488 240.428 451.518 240.36 451.571 240.31C451.625 240.26 451.697 240.231 451.773 240.231H453.941C454.016 240.231 454.089 240.26 454.142 240.31C454.196 240.36 454.226 240.428 454.226 240.499V243.605C454.226 243.676 454.196 243.744 454.142 243.794C454.089 243.844 454.016 243.872 453.941 243.872Z" fill="#1B1B1F"/>
<path d="M449.719 249.548H447.552C447.476 249.548 447.404 249.52 447.35 249.47C447.297 249.419 447.267 249.351 447.267 249.28V246.175C447.267 246.104 447.297 246.036 447.35 245.986C447.404 245.935 447.476 245.907 447.552 245.907H449.719C449.795 245.907 449.867 245.935 449.921 245.986C449.974 246.036 450.004 246.104 450.005 246.175V249.28C450.004 249.351 449.974 249.419 449.921 249.47C449.867 249.52 449.795 249.548 449.719 249.548Z" fill="#1B1B1F"/>
<path d="M453.941 249.548H451.773C451.697 249.548 451.625 249.52 451.571 249.47C451.518 249.419 451.488 249.351 451.488 249.28V246.175C451.488 246.104 451.518 246.036 451.571 245.986C451.625 245.935 451.697 245.907 451.773 245.907H453.941C454.016 245.907 454.089 245.935 454.142 245.986C454.196 246.036 454.226 246.104 454.226 246.175V249.28C454.226 249.351 454.196 249.419 454.142 249.47C454.089 249.52 454.016 249.548 453.941 249.548Z" fill="#1B1B1F"/>
</g>
</g>
<defs>
<clipPath id="clip0_120_416">
<rect width="846.578" height="682.583" fill="white"/>
</clipPath>
<clipPath id="clip1_120_416">
<rect width="254.91" height="193.3" fill="white" transform="translate(252 95)"/>
</clipPath>
</defs>
</svg>
