<svg width="500" height="500" viewBox="0 0 500 500" fill="none" xmlns="http://www.w3.org/2000/svg">
<rect width="500" height="500" fill="black"/>
<path d="M100 275L87.5 250H175L165 225H83.3333L70.8333 200H200.833L190.833 175H68.5L54.1667 150H116.667C116.667 141.159 120.179 132.681 126.43 126.43C132.681 120.179 141.159 116.667 150 116.667H350V183.333H400L450 250V333.333H416.667C416.667 346.594 411.399 359.312 402.022 368.689C392.645 378.066 379.927 383.333 366.667 383.333C353.406 383.333 340.688 378.066 331.311 368.689C321.934 359.312 316.667 346.594 316.667 333.333H250C250 346.594 244.732 359.312 235.355 368.689C225.979 378.066 213.261 383.333 200 383.333C186.739 383.333 174.021 378.066 164.645 368.689C155.268 359.312 150 346.594 150 333.333H116.667V275H100ZM366.667 358.333C373.297 358.333 379.656 355.699 384.344 351.011C389.033 346.323 391.667 339.964 391.667 333.333C391.667 326.703 389.033 320.344 384.344 315.656C379.656 310.967 373.297 308.333 366.667 308.333C360.036 308.333 353.677 310.967 348.989 315.656C344.301 320.344 341.667 326.703 341.667 333.333C341.667 339.964 344.301 346.323 348.989 351.011C353.677 355.699 360.036 358.333 366.667 358.333ZM391.667 208.333H350V250H424.333L391.667 208.333ZM200 358.333C206.63 358.333 212.989 355.699 217.678 351.011C222.366 346.323 225 339.964 225 333.333C225 326.703 222.366 320.344 217.678 315.656C212.989 310.967 206.63 308.333 200 308.333C193.37 308.333 187.011 310.967 182.322 315.656C177.634 320.344 175 326.703 175 333.333C175 339.964 177.634 346.323 182.322 351.011C187.011 355.699 193.37 358.333 200 358.333Z" fill="white"/>
</svg>
