<svg width="400" height="400" viewBox="0 0 400 400" fill="none" xmlns="http://www.w3.org/2000/svg">
<path d="M50 225L37.5 200H125L115 175H33.3333L20.8333 150H150.833L140.833 125H18.5L4.16667 100H66.6667C66.6667 91.1595 70.1786 82.681 76.4298 76.4298C82.681 70.1786 91.1595 66.6667 100 66.6667H300V133.333H350L400 200V283.333H366.667C366.667 296.594 361.399 309.312 352.022 318.689C342.645 328.066 329.927 333.333 316.667 333.333C303.406 333.333 290.688 328.066 281.311 318.689C271.934 309.312 266.667 296.594 266.667 283.333H200C200 296.594 194.732 309.312 185.355 318.689C175.979 328.066 163.261 333.333 150 333.333C136.739 333.333 124.021 328.066 114.645 318.689C105.268 309.312 100 296.594 100 283.333H66.6667V225H50ZM316.667 308.333C323.297 308.333 329.656 305.699 334.344 301.011C339.033 296.323 341.667 289.964 341.667 283.333C341.667 276.703 339.033 270.344 334.344 265.656C329.656 260.967 323.297 258.333 316.667 258.333C310.036 258.333 303.677 260.967 298.989 265.656C294.301 270.344 291.667 276.703 291.667 283.333C291.667 289.964 294.301 296.323 298.989 301.011C303.677 305.699 310.036 308.333 316.667 308.333ZM341.667 158.333H300V200H374.333L341.667 158.333ZM150 308.333C156.63 308.333 162.989 305.699 167.678 301.011C172.366 296.323 175 289.964 175 283.333C175 276.703 172.366 270.344 167.678 265.656C162.989 260.967 156.63 258.333 150 258.333C143.37 258.333 137.011 260.967 132.322 265.656C127.634 270.344 125 276.703 125 283.333C125 289.964 127.634 296.323 132.322 301.011C137.011 305.699 143.37 308.333 150 308.333Z" fill="white"/>
</svg>
